<svg width="50" height="50" viewBox="0 0 50 50" fill="currentColor" xmlns="http://www.w3.org/2000/svg">
<g id="Frame 245">
<g id="Bag-Women">
<path id="Vector" d="M44.0517 20.0001H43.8586L42.069 12.521C41.3058 9.36492 39.5627 6.50985 37.0733 4.33864C34.5839 2.16743 31.4673 0.783883 28.1414 0.37354L25.1069 0.006875C25.0359 -0.00229167 24.9641 -0.00229167 24.8931 0.006875L21.8578 0.37354C18.5321 0.784383 15.4159 2.16812 12.9267 4.33926C10.4375 6.51041 8.69444 9.3652 7.93103 12.521L6.14138 20.0001H5.94828C4.37118 20.0017 2.85915 20.608 1.74397 21.686C0.628802 22.764 0.00159752 24.2256 0 25.7501V44.25C0.00159752 45.7745 0.628802 47.2362 1.74397 48.3142C2.85915 49.3922 4.37118 49.9985 5.94828 50H44.0517C45.6288 49.9985 47.1409 49.3922 48.256 48.3142C49.3712 47.2362 49.9984 45.7745 50 44.25V25.7501C49.9984 24.2256 49.3712 22.764 48.256 21.686C47.1409 20.608 45.6288 20.0017 44.0517 20.0001ZM9.6069 12.896C10.2902 10.0722 11.85 7.51785 14.0774 5.57519C16.3047 3.63254 19.0932 2.39445 22.069 2.02687L25 1.67353L27.931 2.02687C30.9067 2.39438 33.6951 3.63246 35.9224 5.57514C38.1496 7.51782 39.7093 10.0723 40.3922 12.896L42.0888 20.0001H41.2069L39.5517 13.0893C38.915 10.4292 37.4495 8.02191 35.353 6.19217C33.2566 4.36243 30.63 3.19831 27.8276 2.85686L25.1121 2.52353C25.04 2.51436 24.9669 2.51436 24.8948 2.52353L22.1819 2.85686C19.3795 3.1969 16.7524 4.35973 14.6551 6.18845C12.5578 8.01716 11.0913 10.4238 10.4534 13.0835L8.79741 20.0001H7.91121L9.6069 12.896ZM39.4328 20.0001H10.5672L12.1336 13.461C12.6908 11.1337 13.9731 9.02757 15.8076 7.42697C17.6421 5.82637 19.9403 4.80831 22.3922 4.51019L25 4.19019L27.6095 4.51019C30.0617 4.80859 32.3601 5.82706 34.1946 7.42812C36.0291 9.02918 37.3113 11.1357 37.8681 13.4635L39.4328 20.0001ZM48.2759 44.25C48.2747 45.3326 47.8293 46.3706 47.0374 47.1361C46.2454 47.9017 45.1717 48.3322 44.0517 48.3333H5.94828C4.82831 48.3322 3.75455 47.9017 2.96262 47.1361C2.17069 46.3706 1.72528 45.3326 1.72414 44.25V36.6259C2.27595 37.167 2.93358 37.5967 3.65878 37.8898C4.38397 38.1829 5.16223 38.3337 5.94828 38.3334H21.6741C21.8623 39.048 22.2914 39.6817 22.8937 40.1343C23.496 40.5869 24.2371 40.8326 25 40.8326C25.7629 40.8326 26.504 40.5869 27.1063 40.1343C27.7086 39.6817 28.1377 39.048 28.3259 38.3334H44.0517C44.8378 38.3337 45.616 38.1829 46.3412 37.8898C47.0664 37.5967 47.7241 37.167 48.2759 36.6259V44.25ZM23.2759 37.5001C23.2759 37.1704 23.377 36.8482 23.5664 36.5741C23.7559 36.3 24.0252 36.0864 24.3402 35.9603C24.6552 35.8341 25.0019 35.8011 25.3364 35.8654C25.6708 35.9297 25.978 36.0885 26.2192 36.3215C26.4603 36.5546 26.6245 36.8516 26.691 37.1749C26.7575 37.4982 26.7234 37.8333 26.5929 38.1379C26.4624 38.4424 26.2414 38.7027 25.9579 38.8858C25.6743 39.069 25.341 39.1667 25 39.1667C24.5427 39.1667 24.1042 38.9911 23.7808 38.6786C23.4575 38.366 23.2759 37.9421 23.2759 37.5001ZM48.2759 32.5834C48.2747 33.666 47.8293 34.704 47.0374 35.4695C46.2454 36.2351 45.1717 36.6656 44.0517 36.6667H28.3259C28.1377 35.9521 27.7086 35.3184 27.1063 34.8658C26.504 34.4132 25.7629 34.1675 25 34.1675C24.2371 34.1675 23.496 34.4132 22.8937 34.8658C22.2914 35.3184 21.8623 35.9521 21.6741 36.6667H5.94828C4.82831 36.6656 3.75455 36.2351 2.96262 35.4695C2.17069 34.704 1.72528 33.666 1.72414 32.5834V25.7501C1.72528 24.6675 2.17069 23.6295 2.96262 22.864C3.75455 22.0984 4.82831 21.6679 5.94828 21.6668H44.0517C45.1717 21.6679 46.2454 22.0984 47.0374 22.864C47.8293 23.6295 48.2747 24.6675 48.2759 25.7501V32.5834Z" fill="#363230"/>
</g>
</g>
</svg>
