<svg width="52" height="52" viewBox="0 0 52 52" fill="currentColor" xmlns="http://www.w3.org/2000/svg">
<g id="Group">
<g id="Group_2">
<path id="Vector" d="M9.1194 2.43616C9.1194 2.30649 9.13139 2.18244 9.1589 2.0671C9.31971 1.39071 9.96298 0.958064 10.724 1.01355C10.7388 1.01417 10.7544 1.01604 10.7699 1.01729C11.3193 1.06903 11.8956 1.37076 12.431 1.88944L11.6494 2.51971C11.1726 2.05776 10.8207 1.963 10.6535 1.94679C10.6486 1.94679 10.6436 1.94617 10.6387 1.94554C10.3227 1.92123 10.224 2.13194 10.1936 2.25912C10.109 2.61446 10.3382 3.45357 10.7381 4.25403C11.6269 6.03386 12.8591 7.646 14.2599 9.41835C15.0188 10.3797 15.8949 11.4538 16.8633 12.6108L16.0126 13.1669C15.0386 12.003 14.1569 10.922 13.3923 9.95386C11.9591 8.14098 10.6979 6.48895 9.77042 4.63181C9.60326 4.29704 9.1194 3.25657 9.1194 2.43616ZM10.6994 1.48173L10.6443 1.94679L10.6535 1.94741L10.6994 1.48173Z" fill="#363230" stroke="#363230" stroke-width="0.5"/>
</g>
<g id="Group_3">
<path id="Vector_2" d="M24.6534 39.5479L25.4427 38.9251C29.2585 42.7042 33.2895 46.3742 37.4235 49.8335C37.6147 49.9931 37.877 50.0773 38.1423 50.0635C41.2873 49.9008 42.5838 49.3853 43.1177 48.9813C44.2406 48.1322 44.5263 46.7115 44.8281 45.2066L44.8754 44.9703C44.9269 44.7178 44.8472 44.461 44.6582 44.2665C43.4252 42.9997 38.9922 38.432 33.7318 32.84L34.5457 32.2422C39.8012 37.8292 44.2286 42.3913 45.4608 43.6568C45.8586 44.0658 46.0251 44.6044 45.9179 45.1349L45.8706 45.3699C45.549 46.9702 45.2161 48.6247 43.8061 49.6914C42.8497 50.4152 40.965 50.854 38.2043 50.9968C37.6499 51.0255 37.1005 50.849 36.697 50.513C32.5405 47.0356 28.489 43.3463 24.6534 39.5479Z" fill="#363230" stroke="#363230" stroke-width="0.5"/>
</g>
<g id="Group_4">
<g id="Vector_3">
<path d="M1.00046 7.76478C1.00046 7.72862 1.0054 7.69246 1.01457 7.65693C1.0717 7.44434 1.20501 6.94749 4.78459 4.23006C6.48092 2.9421 8.38674 1.59492 8.78314 1.40353C9.44122 1.08622 10.1162 0.952184 10.7369 1.01515C10.7482 1.01577 10.7602 1.01702 10.7715 1.01827L10.6509 1.94715L10.6586 1.94777C10.6558 1.94777 10.653 1.94777 10.6509 1.94715L10.6488 1.94715C10.6403 1.94652 10.6318 1.9459 10.6234 1.94528C10.1127 1.89104 9.61685 2.06746 9.29028 2.22456C9.07021 2.33179 7.44723 3.44644 5.56399 4.87155C3.16584 6.68753 2.26372 7.55905 2.07116 7.83585C2.59734 11.6866 5.02934 15.1696 7.47827 18.4089C7.601 18.571 7.72373 18.733 7.84787 18.8945L6.97183 19.4194C6.84699 19.2561 6.72215 19.0927 6.59801 18.9288C4.05033 15.5593 1.52029 11.926 1.00328 7.81714C1.00116 7.79969 1.00046 7.78223 1.00046 7.76478Z" fill="#363230"/>
<path d="M10.6509 1.94715L10.7715 1.01827C10.7602 1.01702 10.7482 1.01577 10.7369 1.01515C10.1162 0.952184 9.44122 1.08622 8.78314 1.40353C8.38674 1.59492 6.48092 2.9421 4.78459 4.23006C1.20501 6.94749 1.0717 7.44434 1.01457 7.65693C1.0054 7.69246 1.00046 7.72862 1.00046 7.76478C1.00046 7.78223 1.00116 7.79969 1.00328 7.81714C1.52029 11.926 4.05033 15.5593 6.59801 18.9288C6.72215 19.0927 6.84699 19.2561 6.97183 19.4194L7.84787 18.8945C7.72373 18.733 7.601 18.571 7.47827 18.4089C5.02934 15.1696 2.59734 11.6866 2.07116 7.83585C2.26372 7.55905 3.16584 6.68753 5.56399 4.87155C7.44723 3.44644 9.07021 2.33179 9.29028 2.22456C9.61685 2.06746 10.1127 1.89104 10.6234 1.94528C10.6318 1.9459 10.6403 1.94652 10.6488 1.94715L10.6509 1.94715ZM10.6509 1.94715L10.6586 1.94777C10.6558 1.94777 10.653 1.94777 10.6509 1.94715Z" stroke="#363230" stroke-width="0.5"/>
</g>
</g>
<g id="Group_5">
<path id="Vector_4" d="M20.5063 36.1722C20.5063 35.7876 20.6417 35.4341 20.7461 35.1985C20.7517 35.1854 20.7581 35.1723 20.7651 35.1592L21.2384 35.3593L21.2624 35.3618L21.7695 35.393C21.7688 35.4023 21.7674 35.4117 21.7667 35.4216L21.7674 35.4216L21.7667 35.4241C21.7611 35.4615 21.7505 35.4977 21.735 35.5332C21.6172 35.7988 21.5615 36.0051 21.565 36.1834C21.5664 36.3393 21.6172 36.4821 21.7039 36.5762L20.8836 37.1672C20.6438 36.9072 20.5098 36.5606 20.507 36.1922C20.5063 36.1853 20.5063 36.1784 20.5063 36.1722Z" fill="#363230" stroke="#363230" stroke-width="0.5"/>
</g>
<g id="Group_6">
<path id="Vector_5" d="M30.4874 28.4066C30.771 28.2913 31.0926 28.161 31.4679 28.1211C31.956 28.07 32.4236 28.2034 32.7191 28.4777C32.7212 28.4795 32.7234 28.4814 32.7255 28.4833L32.748 28.5051L31.9658 29.1354L31.9496 29.1198C31.8847 29.0618 31.7415 29.0331 31.5927 29.0487C31.3825 29.0712 31.1519 29.1647 30.9283 29.2557L30.4874 28.4066Z" fill="#363230" stroke="#363230" stroke-width="0.5"/>
</g>
<g id="Group_7">
<path id="Vector_6" d="M20.7642 36.8718C20.7642 36.729 20.8383 36.5881 20.9765 36.4965C21.203 36.3469 21.5232 36.3818 21.7023 36.575C21.715 36.5881 21.7277 36.6006 21.7397 36.6106C21.854 36.7028 22.0465 36.7496 22.2588 36.7378C22.3999 36.7296 22.5523 36.7003 22.7392 36.6442C22.845 36.6124 22.9508 36.5757 23.0312 36.547C25.6381 35.6169 27.7922 33.8688 29.3778 32.4506C30.1233 31.7829 30.9747 30.9806 31.637 30.0891C31.668 30.0486 31.6955 30.0106 31.7223 29.9732C31.8408 29.808 31.9713 29.6166 32.0115 29.4339C32.0383 29.3111 32.0165 29.1877 31.9558 29.126C31.7668 28.9327 31.7879 28.6409 32.0045 28.4708C32.2203 28.3006 32.5511 28.3162 32.7465 28.5044C33.2318 28.9732 33.5964 29.3248 33.9385 29.6552C34.2425 29.9482 34.5282 30.2244 34.8646 30.5492C34.8681 30.5529 34.8724 30.5567 34.8759 30.5604C35.1771 30.8703 35.2906 31.2942 35.1884 31.7225C35.1058 32.066 34.9105 32.3521 34.7341 32.5927C34.6833 32.6619 34.6312 32.7311 34.579 32.8003C33.8969 33.6881 33.1683 34.3931 32.2831 35.1793C30.5734 36.6991 28.2443 38.5768 25.3891 39.6198C25.3884 39.6204 25.387 39.6204 25.3856 39.621L25.3546 39.6322C25.3158 39.6466 25.277 39.6603 25.2382 39.6728C24.9807 39.7625 24.6923 39.8492 24.3255 39.8741L24.3022 39.876C23.9418 39.9009 23.4939 39.9321 23.0171 39.5375C23.0051 39.5275 22.9938 39.5175 22.9825 39.5063C22.1742 38.7015 21.6276 38.1398 20.8552 37.1336C20.7939 37.0538 20.7642 36.9622 20.7642 36.8718ZM32.8939 30.0324C32.8135 30.1895 32.7148 30.336 32.6153 30.4744C32.5836 30.5187 32.5511 30.5635 32.518 30.6066C31.8084 31.5616 30.9126 32.407 30.1304 33.107C28.4729 34.5895 26.2137 36.4192 23.4262 37.4142C23.3324 37.4478 23.2089 37.4902 23.0792 37.5295C22.9007 37.5831 22.7378 37.6205 22.5812 37.6442C22.9487 38.0588 23.3112 38.4253 23.7556 38.8679C23.8769 38.9646 23.9368 38.9633 24.219 38.944L24.2437 38.9421C24.4595 38.9272 24.6429 38.8754 24.8524 38.8019C24.8552 38.8006 24.8587 38.8 24.8615 38.7987C24.8919 38.7888 24.9229 38.7776 24.9539 38.7663L24.985 38.7551C27.666 37.7757 29.892 35.9772 31.5326 34.5191C32.3762 33.7704 33.0674 33.1027 33.7008 32.2785C33.7495 32.215 33.7981 32.1514 33.8454 32.0859C33.9717 31.9138 34.1085 31.7162 34.1536 31.5292C34.1699 31.4631 34.1931 31.2973 34.0782 31.1745C33.7452 30.8528 33.461 30.5785 33.1591 30.2874C33.0724 30.2045 32.9849 30.1197 32.8939 30.0324Z" fill="#363230" stroke="#363230" stroke-width="0.5"/>
</g>
<g id="Group_8">
<path id="Vector_7" d="M20.7971 37.0359L21.2732 36.8781L21.7091 36.582L21.7881 36.7073L21.2929 36.8713L20.8711 37.1531L21.2732 36.8781L20.7971 37.0359Z" fill="#363230" stroke="#363230" stroke-width="0.5"/>
</g>
<g id="Group_9">
<path id="Vector_8" d="M31.9468 29.1162L32.7255 28.4834L32.748 28.5052L31.9665 29.1355L31.9468 29.1162Z" fill="#363230" stroke="#363230" stroke-width="0.5"/>
</g>
<g id="Group_10">
<path id="Vector_9" d="M5.54089 20.7827C5.54089 20.3606 5.72992 19.9411 6.0974 19.6325C6.2159 19.5328 6.35132 19.4143 6.49451 19.289C6.68495 19.1226 6.88174 18.9505 7.05031 18.8127C10.0494 16.3621 13.0259 14.2961 16.1498 12.4976C16.4052 12.3505 16.6662 12.2021 16.9257 12.0575C17.7072 11.6217 18.7279 11.7757 19.2992 12.416C20.7903 14.0854 22.3568 15.8559 24.0151 17.7305C26.0775 20.0615 28.2097 22.4722 30.3532 24.8636C30.526 25.0562 30.5006 25.3336 30.2954 25.4988C29.5921 26.0674 29.3128 26.2588 28.9602 26.5013C28.8741 26.5605 28.7831 26.6228 28.6801 26.6952L28.0228 25.962C28.1286 25.8878 28.2217 25.8236 28.3106 25.7625C28.5765 25.5799 28.7979 25.4278 29.2155 25.0999C27.1735 22.8194 25.1457 20.5265 23.1806 18.3059C21.5231 16.4326 19.958 14.6627 18.4683 12.9951C18.2327 12.7314 17.8123 12.6684 17.4893 12.8486C17.234 12.9907 16.9779 13.1366 16.7268 13.2812C13.653 15.0511 10.7223 17.0853 7.76764 19.4997C7.61176 19.6269 7.42132 19.7933 7.23793 19.9542C7.09052 20.0826 6.95156 20.2042 6.82601 20.3101C6.55799 20.5352 6.52131 20.9043 6.74067 21.168C10.3393 25.5007 13.8497 29.4612 17.4597 33.2615C17.5598 33.1848 17.6614 33.1063 17.7644 33.0258C18.0042 32.8394 18.2525 32.6462 18.5113 32.4629L19.1729 33.1923C18.9331 33.3625 18.7046 33.5402 18.4626 33.7278C18.2257 33.9117 17.9809 34.1025 17.7256 34.2833C17.502 34.4422 17.1747 34.4142 16.9899 34.2203C13.2453 30.2953 9.6135 26.207 5.88721 21.7209C5.65516 21.441 5.54089 21.1106 5.54089 20.7827Z" fill="#363230" stroke="#363230" stroke-width="0.5"/>
</g>
<g id="Group_11">
<path id="Vector_10" d="M13.7409 17.7302L17.4418 15.2615C18.0068 14.8843 18.8158 14.9828 19.2439 15.4809C22.0836 18.7794 25.0658 22.018 28.2228 25.4474L28.7624 26.0334C30.0137 27.3918 31.2664 28.7427 32.4873 30.0481L31.6719 30.6435C30.4496 29.3356 29.1948 27.9834 27.9421 26.6231L27.4025 26.0371C24.2398 22.6021 21.252 19.3573 18.4017 16.047C18.3249 15.9578 18.1803 15.9404 18.0787 16.0077L14.3778 18.4764L13.7409 17.7302Z" fill="#363230" stroke="#363230" stroke-width="0.5"/>
</g>
<g id="Group_12">
<path id="Vector_11" d="M8.95392 21.6427C8.95392 21.3061 9.12108 20.9738 9.43849 20.7506C9.82995 20.4745 10.2242 20.1846 10.6044 19.9034C11.1743 19.4833 11.7633 19.0487 12.3706 18.6435L13.0082 19.3897C12.4214 19.7812 11.8423 20.2083 11.2822 20.621C10.8971 20.9052 10.4986 21.1989 10.098 21.4813C10.0035 21.548 9.98371 21.6689 10.0528 21.7568C13.6035 26.2765 17.1795 30.3792 21.6479 35.0591C22.2065 35.6452 22.7665 36.2237 23.311 36.7791L22.5112 37.3913C21.9638 36.8327 21.401 36.2511 20.8395 35.662C16.3494 30.9583 12.7543 26.8345 9.18386 22.2898C9.02869 22.0941 8.95392 21.8678 8.95392 21.6427Z" fill="#363230" stroke="#363230" stroke-width="0.5"/>
</g>
<g id="Group_13">
<path id="Vector_12" d="M12.0304 18.553C12.0304 18.0992 12.3379 17.6684 12.8048 17.4739C13.3656 17.2426 13.9538 17.3236 14.3411 17.6846L14.346 17.689C14.3799 17.7208 14.4144 17.7526 14.4483 17.785C15.0513 18.3535 15.7334 19.058 16.3351 19.6789C16.5601 19.9114 16.7787 20.1371 16.9847 20.3466C17.4156 20.7854 17.611 21.2212 17.5666 21.6414C17.5313 21.973 17.3409 22.2754 17.0298 22.493C16.3774 22.9499 15.5282 22.7878 14.8151 22.0703C14.1887 21.4406 13.4178 20.6152 12.5227 19.6165C12.4042 19.4844 12.3069 19.3728 12.2251 19.2425C12.0988 19.0386 12.0382 18.8292 12.0311 18.5811C12.0304 18.573 12.0304 18.563 12.0304 18.553ZM16.5149 21.5273C16.5149 21.3783 16.3992 21.1788 16.1855 20.9606C15.9782 20.7493 15.7581 20.5224 15.5317 20.288C14.9082 19.644 14.2635 18.9788 13.6738 18.4227C13.6407 18.3909 13.6096 18.3622 13.5793 18.3342L13.5737 18.3286C13.477 18.2388 13.3049 18.2999 13.2549 18.3205C13.1618 18.3591 13.0891 18.4607 13.0891 18.553C13.0891 18.5549 13.0891 18.5561 13.0891 18.558C13.0926 18.6733 13.1159 18.7332 13.1526 18.793C13.1935 18.8579 13.264 18.9383 13.3522 19.0368C14.2367 20.023 14.9963 20.8366 15.6107 21.4544C15.7588 21.6034 16.1305 21.9319 16.3739 21.7611C16.4585 21.7019 16.5058 21.6327 16.5142 21.5554C16.5142 21.5466 16.5149 21.5373 16.5149 21.5273Z" fill="#363230" stroke="#363230" stroke-width="0.5"/>
</g>
<g id="Group_14">
<path id="Vector_13" d="M20.8152 28.4404C20.8152 28.3911 20.818 28.3419 20.8236 28.292C20.8603 27.9865 21.007 27.721 21.237 27.5445C21.4309 27.3955 21.6877 27.3051 21.979 27.2839C22.6758 27.2328 23.3805 27.6075 23.6549 28.1754C23.8876 28.6567 23.6704 29.2863 23.159 29.608C22.673 29.9141 21.9839 29.911 21.4824 29.6012C21.0663 29.3443 20.8152 28.8998 20.8152 28.4404ZM22.69 28.5875C22.69 28.5694 22.6871 28.5545 22.6822 28.5432C22.5849 28.3413 22.314 28.1979 22.0664 28.2159C21.9874 28.2216 21.9444 28.2403 21.931 28.2502C21.9141 28.2633 21.8852 28.3113 21.876 28.3905C21.8555 28.5626 21.943 28.7452 22.089 28.8356C22.2209 28.9173 22.4262 28.9223 22.5454 28.8468C22.6448 28.7839 22.69 28.6617 22.69 28.5875Z" fill="#363230" stroke="#363230" stroke-width="0.5"/>
</g>
<g id="Group_15">
<path id="Vector_14" d="M8.88004 14.3017C8.88004 13.7469 9.33145 13.2195 9.95074 13.073C10.6236 12.914 11.3586 13.212 11.6238 13.75C11.8495 14.2088 11.7035 14.7543 11.2521 15.1396C10.9826 15.3696 10.6264 15.5055 10.2745 15.513C9.58396 15.5273 8.94775 15.0199 8.88497 14.4046C8.88215 14.3709 8.88004 14.336 8.88004 14.3017ZM10.654 14.1234C10.6046 14.023 10.3965 13.9358 10.2244 13.9769C10.0608 14.0156 9.92534 14.177 9.93945 14.321C9.95285 14.4488 10.1123 14.5816 10.2505 14.5785C10.3387 14.5766 10.4388 14.5349 10.5185 14.4675C10.625 14.3759 10.7083 14.2344 10.654 14.1234Z" fill="#363230" stroke="#363230" stroke-width="0.5"/>
</g>
<g id="Group_16">
<path id="Vector_15" d="M5.73409 9.34799C5.73409 9.27318 5.74396 9.19713 5.76371 9.12107C5.81379 8.93342 5.92242 8.75139 6.09663 8.56374C6.32446 8.31937 6.57979 8.15167 6.85557 8.06627C6.89225 8.05504 6.92963 8.04507 6.96702 8.03697C7.34437 7.95218 7.74147 8.0619 8.00245 8.32311C8.26272 8.5837 8.33608 8.94403 8.19501 9.26446C8.1943 9.26508 8.1943 9.26633 8.1936 9.26695C8.19289 9.26882 8.19148 9.27132 8.19078 9.27319C8.09626 9.48265 7.93192 9.67529 7.68999 9.86355C7.53975 9.98013 7.30276 10.1422 6.98677 10.2046C6.60024 10.2806 6.2116 10.1765 5.97179 9.93275C5.81732 9.7744 5.73409 9.56618 5.73409 9.34799ZM7.19484 8.95275C7.10808 8.9833 7.01145 9.05374 6.91412 9.15848C6.87603 9.199 6.84711 9.23516 6.82666 9.26695C6.87391 9.24451 6.92963 9.20897 6.99311 9.15972C7.09186 9.08305 7.15887 9.01509 7.19484 8.95275Z" fill="#363230" stroke="#363230" stroke-width="0.5"/>
</g>
<g id="Group_17">
<path id="Vector_16" d="M3.50852 5.73471C3.50852 5.62062 3.53532 5.50093 3.58893 5.38061C3.75892 5.0022 4.11299 4.79149 4.37185 4.63751L4.39583 4.62317C4.5108 4.5546 4.86065 4.34576 5.26904 4.48353C5.58997 4.59138 5.81074 4.88064 5.81779 5.20295C5.82061 5.40306 5.75008 5.59507 5.59702 5.79144C5.39247 6.05452 5.10893 6.259 4.77812 6.38368C4.67374 6.42295 4.51081 6.47532 4.31331 6.46909C4.06574 6.4616 3.83791 6.36248 3.68838 6.19852C3.56918 6.06699 3.50852 5.90677 3.50852 5.73471Z" fill="#363230" stroke="#363230" stroke-width="0.5"/>
</g>
<g id="Group_18">
<path id="Vector_17" d="M9.52062 3.39544C10.0341 3.00643 10.6477 2.5794 11.2409 2.1667C11.4003 2.05574 11.5583 1.9454 11.7121 1.83817C11.9181 1.69416 12.2122 1.70538 12.4033 1.86435C12.4259 1.88368 12.4583 1.91049 12.4986 1.94477C21.4866 7.32918 32.6613 16.5045 37.0605 20.2095C40.7903 23.3508 44.2641 26.428 46.8428 28.8742C50.9168 32.7394 50.9739 33.3135 50.9979 33.5592C51.0233 33.8141 50.8138 34.0379 50.5268 34.0647C50.1713 34.0984 49.2268 34.1876 44.3833 30.6335C41.8892 28.8032 38.8929 26.3787 36.7501 24.4567C29.0126 17.5151 14.5073 4.96208 12.0069 2.82378C11.9703 2.84934 11.9329 2.87552 11.8955 2.90108C11.3108 3.30817 10.7063 3.72897 10.209 4.1055L9.52062 3.39544ZM49.1605 32.6253C48.5835 31.9769 47.5855 30.9433 45.8595 29.3137C43.2632 26.8625 39.8014 23.8047 36.1125 20.7032C29.6319 15.2546 23.3262 10.3845 17.9854 6.6802C23.609 11.5546 32.1661 19.0131 37.5041 23.8015C39.6145 25.6948 42.5699 28.0869 45.0329 29.8954C47.0621 31.3847 48.3536 32.1902 49.1605 32.6253Z" fill="#363230" stroke="#363230" stroke-width="0.5"/>
</g>
<g id="Group_19">
<path id="Vector_18" d="M41.7416 40.732C44.9276 38.6679 47.72 36.1761 50.042 33.3271L50.9004 33.8739C48.5135 36.8026 45.6421 39.3642 42.3672 41.4863L41.7416 40.732Z" fill="#363230" stroke="#363230" stroke-width="0.5"/>
</g>
</g>
</svg>
