<svg width="52" height="47" viewBox="0 0 52 47" fill="currentColor" xmlns="http://www.w3.org/2000/svg">
<g id="Group 245">
<g id="Frame 232">
<path id="Vector" d="M24.9357 14.7586C24.5766 14.3159 24.0242 14.1437 23.533 14.342C22.4361 14.8187 22.1875 15.704 21.7159 16.5653C20.767 18.3641 20.0331 20.323 19.5537 22.3162C19.5616 21.0563 19.6543 19.8264 19.82 18.7788C20.3113 14.7086 20.9229 10.4379 20.913 6.54793C20.9308 5.27597 20.8815 3.76368 20.4474 2.70207C20.4395 2.65199 20.4198 2.60392 20.3882 2.56786C19.8792 1.45815 18.9007 0.919374 17.0403 1.84679C15.9848 0.428642 14.2506 0.899324 12.5164 2.46172C11.9778 1.61845 11.096 1.6745 9.7564 2.34955C8.68709 2.94043 7.77364 4.00209 7.10879 5.12175C6.32751 4.08218 4.70188 5.05164 3.91864 5.94102C3.10185 6.92453 2.97756 7.7077 2.57907 8.74932C1.83724 11.151 1.4486 12.3187 1.08561 17.3082C0.969211 19.822 0.971186 22.3559 1.0935 24.8399C1.25331 28.6857 1.67548 32.4834 3.33273 35.9447C3.47675 36.2752 3.59118 36.6277 3.67996 36.9943C3.52805 37.6293 2.45282 42.2882 2.51792 45.7177C2.52187 45.872 2.64418 45.9962 2.79807 45.9962H21.3292C21.4732 45.9962 21.5935 45.886 21.6073 45.7418C21.6606 45.2049 21.6922 44.7002 21.7119 44.1934C22.1696 44.0011 22.4833 43.4984 22.4734 42.9215C22.4596 41.7878 22.3649 40.642 22.1893 39.5183C22.1025 38.9675 21.7198 38.5388 21.2463 38.4446C21.1457 37.9459 21.0312 37.4591 20.903 36.9924C21.0628 36.3154 21.2562 35.6364 21.481 34.9754C23.7795 30.7169 25.1171 25.9396 25.5945 21.1041C25.6951 19.9263 25.7326 18.7245 25.705 17.5266C25.7089 16.7715 25.713 15.7421 24.9357 14.7586ZM1.6419 17.3365C1.84313 13.7971 2.3561 11.5615 2.50797 10.9606C3.06041 8.93949 3.09394 8.93349 3.61673 7.53734C3.7351 7.21886 3.95607 6.74812 4.3329 6.31749C5.13983 5.45617 6.42611 4.70504 6.78127 5.71656C4.72356 9.71866 3.58915 14.1657 3.49445 18.6761C3.54772 19.2029 3.64834 19.7577 4.06461 19.7617C4.35857 19.8058 4.7275 19.2029 4.93862 18.2835C4.87746 16.3045 5.01556 14.3194 5.35489 12.3845C5.75145 10.111 6.41829 7.91567 7.33568 5.86034C7.99266 4.61444 8.88242 3.49673 10.0168 2.84775C11.1966 2.22882 11.7096 2.37703 11.9286 2.60939C12.0036 2.68751 12.0568 2.79768 12.1022 2.92187C11.0645 4.55836 10.1904 6.33304 9.50195 8.20198C8.54315 10.8099 7.94733 13.5821 7.73228 16.4403C7.6869 16.9992 8.00849 17.5861 8.54512 17.6141C9.11922 17.6702 9.39544 16.4183 9.38953 16.3282C9.48423 13.6621 9.88867 11.0342 10.591 8.51852C11.1138 6.64769 11.8023 4.8329 12.6389 3.12611C13.9903 1.75201 15.4384 1.22723 16.2473 1.8241C16.3854 1.92626 16.5077 2.06447 16.6142 2.23273C14.3296 6.10064 13.0966 8.24971 12.9841 16.4224C12.9644 16.6728 13.1183 17.6182 13.7101 17.6162C14.2744 17.6463 14.4499 16.3964 14.4618 16.2762C14.5999 11.5089 15.4739 6.78972 17.1666 2.42697C17.575 2.17459 18.1906 1.91219 18.9304 1.97428C19.3566 1.99832 19.6683 2.32282 19.8912 2.86365C19.8793 5.07902 19.4433 9.02882 19.1829 11.2102C19.033 12.4601 18.3721 13.5117 17.4172 14.0205C16.8648 14.5593 16.6458 15.8693 16.3795 18.1788C16.2591 19.3626 15.6752 20.4002 14.8169 20.9571C7.93752 25.4139 3.74907 30.5676 2.56521 32.1321C1.93783 29.7485 1.78788 27.3248 1.64979 24.8091C1.52945 22.3433 1.52747 19.8275 1.6419 17.3358L1.6419 17.3365ZM4.38027 18.2539C4.27177 18.6064 4.17904 18.8448 4.10604 18.997C4.08829 18.9149 4.07053 18.8087 4.05475 18.6705C4.09223 16.996 4.27374 15.3315 4.59531 13.695C4.40789 15.2013 4.3349 16.7296 4.38027 18.2539ZM10.1036 8.19878C9.36176 10.8067 8.93565 13.525 8.83504 16.2889C8.80742 16.4432 8.71075 16.8358 8.54897 17.0481C8.36352 16.98 8.27671 16.7276 8.2925 16.4832C8.50951 13.6008 9.1152 10.8206 10.1036 8.19878ZM13.6883 17.0002C13.6015 16.882 13.5522 16.5895 13.5502 16.4133C13.4891 10.6224 14.7478 7.20937 14.7596 7.17501C15.0358 6.44389 15.3436 5.72881 15.6849 5.02974C14.5978 8.65926 14.0257 12.3789 13.9113 16.2407C13.8896 16.3909 13.8166 16.7558 13.6883 17.0002ZM21.0728 45.4293H3.07404C3.0701 42.2945 3.9638 38.2442 4.1887 37.273H20.4001C20.4987 37.6455 20.5895 38.0301 20.6723 38.4227H13.8697C13.7336 38.4207 13.6034 38.4368 13.4731 38.4608C13.4534 38.4648 13.4317 38.4668 13.412 38.4728C13.3686 38.4828 13.3271 38.4928 13.2857 38.5029C13.2285 38.5189 13.1713 38.5369 13.116 38.5549C13.1082 38.5569 13.1022 38.5589 13.0943 38.5629C12.5439 38.7653 12.1138 39.1739 11.8219 39.6827C11.5318 40.1694 11.3641 40.7443 11.372 41.3171C11.3622 41.6116 11.4036 41.906 11.4825 42.1905C11.6068 42.6912 11.8514 43.1559 12.2322 43.5185C12.3684 43.6567 12.5143 43.7769 12.6682 43.879C12.6899 43.895 12.7136 43.9091 12.7373 43.9231C12.7807 43.9491 12.8221 43.9752 12.8655 43.9992C12.907 44.0232 12.9504 44.0433 12.9938 44.0653C13.0194 44.0773 13.0431 44.0873 13.0687 44.0994C13.124 44.1234 13.1812 44.1454 13.2384 44.1655C13.2522 44.1695 13.266 44.1735 13.2798 44.1795C13.343 44.1995 13.4081 44.2175 13.4751 44.2316C13.485 44.2336 13.4949 44.2356 13.5047 44.2376C13.5718 44.2516 13.6409 44.2636 13.7099 44.2716C13.7888 44.2796 13.8678 44.2836 13.9467 44.2836H21.1478C21.134 44.6542 21.1083 45.0346 21.0728 45.4293ZM21.6331 39.5984C21.8067 40.6981 21.8975 41.8178 21.9133 42.9275C21.9192 43.3361 21.6667 43.7027 21.3115 43.7107L13.9488 43.7127C13.4714 43.7127 13.0038 43.5024 12.6309 43.1198C12.0588 42.587 11.8595 41.7357 11.9739 40.9445C12.1219 39.9289 12.7927 39.0096 13.8699 38.9915H21.0452C21.3293 38.9915 21.5759 39.2459 21.6331 39.5984ZM25.0344 21.0522C24.7779 23.8665 24.1683 26.5728 23.3239 29.2546C22.7044 31.1515 21.9133 32.9903 20.9782 34.7209C20.7434 35.3678 20.5599 36.0389 20.3922 36.7059H4.18689C3.78245 35.3819 3.11955 34.182 2.75262 32.822C3.35632 31.9847 7.61381 26.2979 15.1205 21.4326C16.1208 20.7836 16.8014 19.5878 16.9395 18.2337C17.2137 15.5316 17.5689 14.7264 17.7365 14.49C18.8255 13.8831 19.5753 12.6853 19.745 11.2751C19.96 9.47837 20.2027 7.265 20.3427 5.35812C20.5894 9.71076 19.4273 16.9116 19.2715 18.6863C19.0564 20.0364 18.9637 21.6769 19.0071 23.3014C19.0485 23.6559 18.9637 24.0585 19.3011 24.1306C19.4214 24.1487 19.5417 24.0826 19.593 23.9684L19.9067 23.2814C20.3861 21.0519 21.1457 18.8346 22.2111 16.8296C22.6313 16.0964 22.8266 15.2632 23.74 14.8646C24.0123 14.7504 24.328 14.8806 24.5272 15.135C25.1013 15.8321 25.1625 16.7855 25.1467 17.2923C25.1645 18.5522 25.1468 19.8163 25.0344 21.0522ZM14.1872 39.9948C12.6326 40.0489 12.6326 42.6529 14.1872 42.705C15.7419 42.6529 15.7419 40.0489 14.1872 39.9948ZM14.1872 42.1401C13.3744 42.1161 13.3744 40.5877 14.1872 40.5637C15.0021 40.5877 15.0021 42.116 14.1872 42.1401ZM50.9065 24.8378C51.0288 22.35 51.0308 19.8161 50.9144 17.3045C50.5534 12.3149 50.1627 11.1573 49.4229 8.7493C49.0224 7.69969 48.8981 6.92252 48.0833 5.941C47.3001 5.04963 45.6745 4.08017 44.8932 5.12173C44.2224 3.99602 43.3168 2.94241 42.2377 2.34548C40.908 1.67445 40.0221 1.62036 39.4855 2.46166C37.7533 0.899263 36.0172 0.42858 34.9617 1.84673C33.0855 0.917312 32.1089 1.46415 31.6039 2.58185C31.5802 2.6139 31.5625 2.65196 31.5546 2.69402C31.1186 3.75563 31.0732 5.27598 31.087 6.55188C31.0613 9.83286 31.5289 13.278 31.9334 16.7875C32.1267 18.6644 32.4661 20.2928 32.4483 22.3199C31.9689 20.3269 31.2369 18.3699 30.286 16.567C30.1578 16.3267 30.0335 16.0903 29.9171 15.8439C29.5304 14.8824 28.0764 13.5063 27.0485 14.7783C26.287 15.7417 26.2909 16.7733 26.2968 17.5285C26.2298 20.2626 26.5139 23.0588 27.1472 25.6889C27.4076 26.9448 27.743 28.2047 28.1435 29.4366C28.7728 31.3595 29.5718 33.2224 30.5188 34.9772C30.7437 35.6402 30.9371 36.3193 31.0969 36.9943C30.9686 37.461 30.8562 37.9497 30.7536 38.4485C30.2801 38.5426 29.8973 38.9713 29.8105 39.5221C29.6349 40.6459 29.5402 41.7916 29.5264 42.9253C29.5166 43.5042 29.8342 44.015 30.288 44.2033C30.3057 44.702 30.3393 45.2088 30.3925 45.7456C30.4063 45.8898 30.5267 46 30.6707 46L49.2018 45.996C49.3537 45.996 49.478 45.8718 49.4819 45.7176C49.5471 42.2863 48.4699 37.6274 48.3199 36.9941C48.4067 36.6276 48.5231 36.2751 48.6632 35.9505C50.3204 32.4892 50.7467 28.6816 50.9065 24.8378ZM33.038 1.97289C33.7719 1.90279 34.4132 2.16519 34.8255 2.42358C36.5222 6.80627 37.3902 11.4972 37.5323 16.3025C37.5402 16.3887 37.7296 17.6586 38.282 17.6145C38.3846 17.6145 38.5247 17.5785 38.6707 17.4383C38.9824 17.1398 39.0061 16.5369 39.0061 16.4207C38.8916 8.23824 37.6605 6.10097 35.3759 2.23306C35.4845 2.0648 35.6068 1.92659 35.7429 1.82443C36.5538 1.2275 37.9999 1.75032 39.3533 3.12444C40.1897 4.83102 40.8803 6.64581 41.4011 8.51685C42.1035 11.0347 42.5079 13.6626 42.6026 16.3265C42.5927 16.4146 42.8749 17.6686 43.447 17.6125C43.9856 17.5864 44.3072 16.9975 44.2599 16.4387C44.0448 13.5783 43.451 10.8063 42.4902 8.20031C41.8036 6.33347 40.9276 4.55874 39.8919 2.9243C39.9353 2.80211 39.9728 2.67592 40.0616 2.60982C40.2825 2.37747 40.7955 2.23124 41.9792 2.85019C43.1117 3.49716 44.0034 4.61887 44.6564 5.86078C45.5738 7.9159 46.2407 10.1113 46.6372 12.3849C46.9746 14.3198 47.1147 16.3049 47.0535 18.2839C47.2646 19.2034 47.6355 19.8063 47.9275 19.7622C48.3438 19.7562 48.4444 19.2034 48.4977 18.6765C48.403 14.1656 47.2686 9.71874 45.2109 5.71699C45.566 4.70743 46.8543 5.45259 47.6592 6.31792C48.038 6.74858 48.259 7.21929 48.3793 7.54378C48.9002 8.92588 48.9337 8.94593 49.4861 10.961C49.638 11.5619 50.151 13.7973 50.3522 17.3349C50.4686 19.8267 50.4666 22.3425 50.3443 24.8102C50.2062 27.32 50.0563 29.7497 49.4289 32.1332C48.2451 30.5708 44.0566 25.4168 37.1731 20.9561C36.315 20.3993 35.7309 19.3617 35.6106 18.1779C35.218 14.6906 34.8846 14.334 34.5709 14.0195C33.614 13.5088 32.9551 12.4591 32.8051 11.2092C32.5428 9.02592 32.1087 5.07381 32.0969 2.8586C32.3198 2.32981 32.6237 2.00694 33.038 1.97289ZM36.315 5.03153C36.6543 5.73061 36.9641 6.44568 37.2403 7.1768C37.2521 7.21086 38.5108 10.6241 38.4496 16.4151C38.4477 16.5893 38.3983 16.8838 38.3115 17.002C38.1774 16.7536 38.1064 16.373 38.0906 16.2588C37.9742 12.3889 37.402 8.66715 36.315 5.03153ZM43.4666 17.046C43.2891 16.8297 43.1904 16.4391 43.1628 16.2868C43.0622 13.5246 42.636 10.8062 41.8943 8.19668C42.8807 10.8187 43.4883 13.5988 43.7053 16.4812C43.7231 16.7296 43.6343 16.9518 43.4666 17.046ZM47.4026 13.6949C47.6985 15.4255 48.0221 17.2383 47.8918 18.997C47.8188 18.8448 47.7261 18.6064 47.6176 18.2539C47.663 16.7296 47.59 15.2012 47.4026 13.6949ZM28.674 29.2547C27.8315 26.5766 27.22 23.8726 26.9635 21.0523C26.851 19.8144 26.8333 18.5505 26.855 17.2985C26.8392 16.7918 26.9004 15.8363 27.4587 15.1593C27.658 14.8949 27.9835 14.7506 28.2616 14.8688C29.1751 15.2654 29.3743 16.1047 29.7906 16.8318C30.8579 18.8389 31.6175 21.0543 32.0949 23.2836L32.4086 23.9706C32.4599 24.0828 32.5783 24.1509 32.7006 24.1329C33.0419 24.0488 32.9492 23.6702 32.9946 23.3056C33.038 21.6791 32.9452 20.0386 32.7302 18.6886C32.5724 16.8919 31.4123 9.70107 31.6569 5.35628C31.797 7.26321 32.0397 9.48058 32.2547 11.2774C32.4244 12.6895 33.1721 13.8853 34.2631 14.4922C34.4308 14.7286 34.786 15.5338 35.0602 18.236C35.1983 19.59 35.877 20.7859 36.8792 21.4348C44.3879 26.3003 48.6435 31.9869 49.2471 32.8242C48.8801 34.1823 48.2172 35.3801 47.8128 36.7081L31.6055 36.7061C31.4398 36.0411 31.2543 35.3681 31.0195 34.7211C30.0824 32.9925 29.2934 31.1515 28.674 29.2547ZM30.3608 39.6206C30.3627 39.6146 30.3647 39.6066 30.3647 39.5986C30.4219 39.246 30.6685 38.9916 30.9527 38.9916H30.9823H38.1298H38.1318C38.2443 38.9936 38.3508 39.0057 38.4554 39.0277C38.4633 39.0297 38.4692 39.0297 38.4771 39.0317C38.5067 39.0377 38.5363 39.0477 38.5658 39.0557C38.6014 39.0657 38.6369 39.0758 38.6724 39.0878C38.6822 39.0918 38.6921 39.0958 38.702 39.0978C38.994 39.208 39.2603 39.4002 39.4832 39.6667C39.5227 39.7107 39.5562 39.7608 39.5918 39.8089C39.8759 40.2235 40.0357 40.7483 40.0534 41.2791C40.0554 41.9662 39.8088 42.6552 39.3609 43.126C39.1459 43.3463 38.8973 43.5065 38.6349 43.6027C38.556 43.6307 38.4771 43.6588 38.3922 43.6748H38.3903C38.2818 43.6968 38.1693 43.7089 38.0509 43.7109C38.0115 43.7048 36.8357 43.7069 35.429 43.7109H30.7651C30.7276 43.7109 30.696 43.7089 30.6723 43.7089C30.331 43.6928 30.0824 43.3363 30.0864 42.9277C30.0982 41.826 30.1911 40.7122 30.3608 39.6206ZM30.925 45.4294C30.8895 45.0328 30.8639 44.6522 30.8481 44.2796H37.1674H38.0512C38.4221 44.2836 38.7713 44.1895 39.087 44.0232C39.6631 43.7448 40.0793 43.2621 40.3279 42.6912C40.5311 42.2625 40.6396 41.7878 40.6258 41.3171C40.6298 40.9846 40.5745 40.6501 40.47 40.3316C40.466 40.3195 40.4621 40.3075 40.4581 40.2955C40.4502 40.2715 40.4424 40.2494 40.4345 40.2254C40.2392 39.6385 39.8801 39.1237 39.3533 38.7952C39.3514 38.7952 39.3494 38.7932 39.3494 38.7932C39.304 38.7652 39.2586 38.7351 39.2093 38.7111C38.8858 38.5268 38.5227 38.4186 38.1302 38.4226H31.3255C31.4084 38.03 31.4991 37.6455 31.5978 37.2729H47.8091C48.034 38.2423 48.9277 42.2925 48.9258 45.4292L30.925 45.4294ZM37.8105 42.7072C39.3651 42.6531 39.3651 40.0512 37.8105 39.9971C36.2559 40.0492 36.2559 42.6531 37.8105 42.7072ZM37.8105 40.564C38.6233 40.588 38.6253 42.1163 37.8105 42.1403C36.9957 42.1163 36.9957 40.588 37.8105 40.564Z" fill="#363230" stroke="#363230" stroke-width="0.7"/>
</g>
</g>
</svg>
