<svg width="46" height="52" viewBox="0 0 46 52" fill="currentColor" xmlns="http://www.w3.org/2000/svg">
<g id="Group 250">
<path id="Vector" d="M10.1141 40.9533C10.2112 41.0284 10.3258 41.0648 10.4395 41.0648C10.5993 41.0648 10.7573 40.9931 10.8625 40.8562C12.7757 38.3653 14.0719 36.0764 14.8393 33.8086C14.9134 34.0732 15.1783 34.2418 15.4519 34.1898C15.7415 34.135 15.9319 33.8549 15.8773 33.5642L15.4467 31.2724C15.3992 31.0191 15.1788 30.8359 14.9223 30.8359C14.9218 30.8359 14.9212 30.8359 14.9207 30.8359C14.6636 30.8366 14.4437 31.0214 14.3974 31.2753C13.8725 34.1581 12.4808 36.9946 10.017 40.2022C9.83747 40.4362 9.88069 40.7728 10.1141 40.9533Z" fill="#363230"/>
<path id="Vector_2" d="M30.7348 30.8359C30.4876 30.8386 30.2747 31.0112 30.22 31.2532L29.7028 33.545C29.6377 33.8335 29.8179 34.1204 30.1053 34.1858C30.3928 34.2514 30.6785 34.0704 30.7436 33.7818L30.805 33.5095C31.8402 36.5959 33.3741 39.084 35.3797 40.9245C35.4821 41.0185 35.611 41.0648 35.7396 41.0648C35.8842 41.0648 36.0283 41.0062 36.1335 40.8906C36.3324 40.6723 36.3172 40.3334 36.0998 40.1339C33.8337 38.0543 32.2048 35.0628 31.2582 31.2424C31.1985 31.0015 30.9831 30.8377 30.7348 30.8359Z" fill="#363230"/>
<path id="Vector_3" d="M1.10373 47.013C1.10373 47.0131 1.10373 47.0132 1.10373 47.0132C1.10373 47.0134 1.10373 47.0134 1.10373 47.0135C1.08999 48.8842 1.06944 50.2945 1.06918 50.3086C1.06504 50.5954 1.28661 50.8347 1.57194 50.8512C3.44264 50.96 4.74763 51 5.66338 51C7.5641 51 7.7862 50.827 7.90025 50.7354C8.34632 50.3797 8.29656 49.7238 8.2276 48.8164C8.22626 48.7978 8.22493 48.7785 8.22346 48.7597C8.90257 48.8247 10.1757 48.8947 12.6436 48.9681C15.4371 49.0511 19.1505 49.1145 22.8492 49.1425C22.8703 49.1474 22.891 49.1536 22.913 49.156C22.9326 49.1581 22.9521 49.1592 22.9714 49.1592C23.0122 49.1592 23.0517 49.1531 23.0901 49.1442C24.4311 49.1537 25.7356 49.1585 26.9758 49.1585C29.2997 49.1585 31.3994 49.1419 33.0961 49.1094C36.5638 49.0428 37.6656 48.9298 38.0832 48.8231L38.0866 49.5699C38.088 49.8511 38.3058 50.0835 38.5852 50.102C38.6808 50.1083 40.1912 50.206 41.6686 50.206C42.4456 50.206 43.2139 50.179 43.7616 50.0973C44.1441 50.0404 44.458 49.8588 44.6692 49.5719C45.1653 48.8982 45.002 47.8194 44.829 46.6772C44.793 46.4395 44.7558 46.1938 44.7263 45.9596C44.7263 45.9592 44.7261 45.9589 44.726 45.9585C44.726 45.9584 44.726 45.9583 44.726 45.9581C44.6621 45.4608 44.6456 45.0965 44.6741 44.8129C44.8538 43.0629 43.5255 31.266 43.0631 28.0538C42.7849 26.1264 42.6553 23.1769 42.5304 20.3245C42.4499 18.4929 42.374 16.7628 42.2618 15.3405C41.958 11.4875 39.191 9.44348 39.0735 9.35844C39.0728 9.35791 39.072 9.35777 39.0713 9.35724C39.0572 9.34706 39.0409 9.33983 39.0258 9.33112C39.0084 9.32108 38.9916 9.3097 38.9733 9.30166C38.9722 9.30126 38.9713 9.30046 38.9704 9.30005C36.617 8.29556 34.2297 6.67895 31.8742 4.49548C29.8102 1.53437 27.6851 1.02389 22.4037 1.00273C22.403 1.00273 22.4022 1.00273 22.4016 1.00273C22.4008 1.00273 22.4001 1.003 22.3993 1.003C22.3978 1.003 22.3964 1.003 22.3949 1.003C22.3949 1.003 22.3948 1.003 22.3946 1.003C22.1793 0.998178 22.0437 1.00045 22.0138 1.00112C16.6348 1.00126 15.7203 1.22369 11.9457 4.96726C11.3302 5.50238 10.7297 6.00804 10.1606 6.47058L10.1605 6.47072C10.1602 6.47098 10.1599 6.47112 10.1597 6.47125C7.43084 8.69999 5.37231 10.0541 5.3519 10.0675C5.3503 10.0686 5.34897 10.0699 5.34737 10.0711C5.32669 10.0849 5.30682 10.0999 5.28801 10.1168C5.28694 10.1177 5.28401 10.1204 5.28267 10.1216C5.28227 10.122 5.28187 10.1223 5.2816 10.1227C5.06951 10.3149 1.43414 13.7203 1.20217 21.2188C0.993409 27.973 0.941253 34.8317 1.06944 38.6922C1.14174 40.8737 1.12187 44.8418 1.10373 47.013ZM7.19633 49.8723C6.54831 49.9685 4.25354 49.9204 2.14299 49.8099C2.14926 49.3219 2.15847 48.5214 2.1666 47.558L2.39084 47.56L6.81923 47.6006C6.8239 47.6331 6.83163 47.6618 6.83724 47.6929C6.84444 47.7318 6.85098 47.7715 6.85978 47.8083C6.86819 47.8428 6.87886 47.8747 6.88886 47.9074C6.8994 47.9422 6.90967 47.9774 6.92208 48.0101C6.93381 48.041 6.94742 48.0696 6.96076 48.0985C6.97463 48.1287 6.98837 48.159 7.00398 48.1871C7.01905 48.2143 7.03586 48.2396 7.05267 48.2649C7.06974 48.2908 7.08708 48.3165 7.10589 48.3403C7.11323 48.3497 7.1191 48.3608 7.1267 48.3698C7.13711 48.5507 7.15045 48.7263 7.16338 48.8977C7.18846 49.2274 7.22114 49.659 7.19633 49.8723ZM22.9758 48.0722C14.656 48.011 8.82626 47.809 7.92786 47.6491C7.92453 47.6416 7.92079 47.6326 7.91679 47.6219C7.90558 47.5912 7.89264 47.5455 7.88184 47.4825C7.88117 47.4785 7.88051 47.475 7.87971 47.4708C7.87677 47.4529 7.8741 47.4327 7.8717 47.4119C7.87077 47.4037 7.8697 47.3954 7.8689 47.3869C7.86663 47.3654 7.86477 47.3425 7.86303 47.318C7.86237 47.3083 7.86183 47.2974 7.8613 47.2871C7.85996 47.2607 7.85863 47.2337 7.8581 47.2039C7.85796 47.1971 7.8581 47.1892 7.8581 47.1822C7.8577 47.1493 7.85756 47.1154 7.85836 47.0782C7.8593 47.0214 7.8617 46.9636 7.86517 46.9052C7.8653 46.9034 7.86543 46.9017 7.86557 46.8999C7.86877 46.847 7.87317 46.7936 7.87824 46.7401C7.87984 46.7236 7.88171 46.707 7.88331 46.6905C7.88731 46.6521 7.89158 46.6138 7.89625 46.5753C7.89918 46.5518 7.90225 46.5283 7.90532 46.5049C7.90932 46.4746 7.91359 46.4446 7.91799 46.4146C7.92226 46.3857 7.92653 46.3568 7.93106 46.3281C7.93453 46.3064 7.938 46.285 7.9416 46.2636C7.94747 46.2288 7.95334 46.1938 7.95947 46.1598C7.96108 46.1511 7.96268 46.1425 7.96428 46.134C7.99122 45.9864 8.02017 45.8479 8.04765 45.7263C8.72715 45.7981 10.0431 45.8404 12.7003 45.8618C12.803 45.8626 12.91 45.8635 13.0159 45.8641C13.0291 45.8643 13.0419 45.8643 13.0551 45.8644C13.1672 45.8652 13.2813 45.8659 13.3969 45.8665C13.4063 45.8665 13.4159 45.8667 13.4255 45.8667C13.7801 45.8687 14.1508 45.8701 14.5372 45.8712C14.5463 45.8712 14.5554 45.8712 14.5644 45.8713C14.9469 45.8723 15.3447 45.8728 15.7576 45.8728C15.7693 45.8728 15.7805 45.8728 15.7922 45.8728C15.7994 45.8728 15.8069 45.8728 15.8141 45.8728C16.1976 45.8728 16.5943 45.8724 17.0037 45.8715C17.0236 45.8715 17.0434 45.8713 17.0634 45.8713C18.916 45.8673 21.0279 45.8551 23.3897 45.8347C29.8341 45.78 36.2714 45.678 38.0087 45.6493C38.0278 45.7794 38.047 45.932 38.0615 46.0961C38.0622 46.103 38.0627 46.11 38.0633 46.1168C38.0672 46.1619 38.0706 46.2079 38.0737 46.2545C38.0741 46.2614 38.0748 46.2684 38.0752 46.2754C38.0752 46.2756 38.0752 46.2758 38.0752 46.276C38.0776 46.3172 38.079 46.3569 38.0808 46.3968C38.0816 46.4154 38.0828 46.4353 38.0833 46.4535C38.0885 46.6233 38.0861 46.7814 38.0757 46.9251C38.0441 47.3515 37.9431 47.6625 37.7945 47.7914C37.1242 47.9758 32.2548 48.1401 22.9758 48.0722ZM43.8112 48.9352C43.7919 48.9614 43.7518 49.0158 43.6052 49.0376H43.6051C42.467 49.2073 40.1638 49.114 39.1514 49.0613L39.1419 46.9811C39.143 46.9645 39.1434 46.9467 39.1444 46.9298C39.1468 46.8876 39.1492 46.8452 39.1506 46.8014C39.1506 46.7996 39.1507 46.7979 39.1508 46.7962C39.1791 46.7968 39.2059 46.797 39.2341 46.7976C39.4114 46.8017 39.586 46.8049 39.7576 46.807C39.7842 46.8073 39.8113 46.8078 39.8377 46.8081C40.0002 46.8098 40.1606 46.8109 40.3182 46.8109C40.3462 46.8109 40.3728 46.8104 40.4007 46.8104C40.4656 46.8102 40.5287 46.8094 40.5926 46.809C40.7277 46.8081 40.8619 46.8069 40.9933 46.8046C41.061 46.8034 41.1273 46.8018 41.1942 46.8002C41.3174 46.7974 41.4399 46.7942 41.5599 46.7901C41.6296 46.7879 41.6982 46.785 41.7668 46.7824C41.8798 46.7778 41.9916 46.7729 42.1016 46.7672C42.1725 46.7636 42.2426 46.7597 42.3121 46.7556C42.4164 46.7494 42.5193 46.7427 42.6208 46.7355C42.6912 46.7305 42.7615 46.7255 42.8308 46.72C42.928 46.7122 43.0236 46.7038 43.1185 46.6951C43.1875 46.6888 43.2567 46.6825 43.3244 46.6756C43.4174 46.6663 43.5081 46.656 43.5987 46.6455C43.6462 46.64 43.6958 46.6355 43.7428 46.6297C43.7532 46.6996 43.7637 46.7692 43.7741 46.8382C43.8942 47.6318 44.0437 48.6193 43.8112 48.9352ZM41.1983 15.425C41.309 16.8284 41.3845 18.5495 41.4644 20.3715C41.5906 23.2503 41.7212 26.2269 42.0071 28.2071C42.5027 31.6513 43.77 43.1712 43.6127 44.7039C43.5876 44.9515 43.5875 45.2323 43.6126 45.5662C43.6066 45.5668 43.6008 45.5676 43.5948 45.5684C43.4592 45.5849 43.3202 45.6 43.1785 45.6141C43.1476 45.6172 43.1164 45.6201 43.0851 45.6231C42.9419 45.6367 42.7962 45.6495 42.6468 45.6606C42.6311 45.6618 42.6149 45.6627 42.5992 45.6638C42.4589 45.674 42.3153 45.6831 42.1694 45.6912C42.1379 45.693 42.1067 45.6949 42.0749 45.6966C41.9207 45.7046 41.7635 45.7116 41.603 45.7174C41.5677 45.7187 41.5318 45.7198 41.496 45.7208C41.3345 45.7261 41.1707 45.7305 41.0027 45.7336C40.995 45.7337 40.9877 45.734 40.9799 45.7341C40.8064 45.737 40.6283 45.7384 40.4478 45.739C40.4087 45.7392 40.3698 45.7393 40.3304 45.7393C40.1528 45.7393 39.9721 45.7384 39.7878 45.7361C39.7535 45.7357 39.7184 45.735 39.684 45.7345C39.5083 45.7319 39.3298 45.7285 39.1479 45.7239C39.1306 45.7235 39.1135 45.7231 39.096 45.7227C39.056 45.3921 39.0062 45.136 38.9853 45.0347C38.961 44.5807 38.7485 40.5894 38.5662 36.5579C38.5652 36.5378 38.5643 36.5177 38.5634 36.4976C38.5539 36.2881 38.5444 36.0783 38.5352 35.8692C38.5346 35.854 38.5339 35.8389 38.5332 35.8239C38.5291 35.7315 38.5251 35.6391 38.5211 35.547C38.5201 35.5249 38.5191 35.5026 38.5182 35.4805C38.5143 35.391 38.5103 35.3015 38.5065 35.2122C38.5056 35.19 38.5047 35.1677 38.5037 35.1455C38.5004 35.0666 38.4969 34.988 38.4936 34.9095C38.4917 34.868 38.49 34.8265 38.4883 34.7851C38.4856 34.7217 38.4829 34.6583 38.4803 34.5951C38.4781 34.5465 38.4761 34.4977 38.4741 34.4493C38.4715 34.3862 38.4688 34.3233 38.4663 34.2605C38.4643 34.2113 38.4621 34.1622 38.4601 34.1133C38.4577 34.055 38.4553 33.9972 38.4531 33.9393C38.4509 33.8874 38.4488 33.8355 38.4468 33.7839C38.4443 33.7223 38.4419 33.6608 38.4393 33.5995C38.4375 33.5534 38.4356 33.5073 38.4338 33.4614C38.4316 33.403 38.4292 33.3449 38.4269 33.287C38.4249 33.236 38.4229 33.1851 38.4209 33.1344C38.4188 33.0784 38.4166 33.0227 38.4144 32.9672C38.4125 32.9181 38.4106 32.8692 38.4088 32.8205C38.4065 32.7622 38.4044 32.7042 38.4022 32.6465C38.4005 32.6015 38.3989 32.5569 38.3972 32.5122C38.395 32.4564 38.393 32.4008 38.391 32.3455C38.3892 32.2942 38.3873 32.2434 38.3854 32.1927C38.3837 32.1433 38.3818 32.094 38.3801 32.0451C38.3784 31.996 38.3766 31.9472 38.3749 31.8986C38.3732 31.8477 38.3713 31.797 38.3696 31.7467C38.3678 31.6976 38.3662 31.6489 38.3646 31.6002C38.363 31.5528 38.3614 31.5054 38.3598 31.4586C38.3581 31.4075 38.3565 31.3571 38.3549 31.3067C38.3535 31.2647 38.3521 31.2227 38.3507 31.1812C38.3491 31.1285 38.3474 31.0765 38.3458 31.0247C38.3446 30.9841 38.3433 30.9433 38.3421 30.9032C38.3406 30.8545 38.3391 30.8065 38.3378 30.7585C38.3366 30.7168 38.3353 30.6749 38.3342 30.6339C38.3329 30.5899 38.3318 30.5466 38.3306 30.5034C38.3294 30.4598 38.3282 30.416 38.327 30.3733C38.3259 30.3325 38.3249 30.2927 38.3238 30.2527C38.3227 30.2102 38.3215 30.1676 38.3206 30.126C38.3195 30.0825 38.3186 30.04 38.3175 29.9974C38.3167 29.9611 38.3158 29.9244 38.315 29.8888C38.3141 29.8465 38.3133 29.8057 38.3123 29.7643C38.3115 29.7287 38.3109 29.6925 38.3101 29.6577C38.3093 29.6151 38.3085 29.574 38.3077 29.5325C38.3071 29.5023 38.3065 29.4715 38.3059 29.4421C38.3051 29.398 38.3046 29.3557 38.3039 29.3131C38.3035 29.2865 38.3031 29.259 38.3027 29.233C38.3022 29.1951 38.3018 29.159 38.3014 29.1223C38.3011 29.0935 38.3006 29.0639 38.3003 29.0359C38.2999 28.9901 38.2997 28.9465 38.2993 28.9028C38.2991 28.8867 38.299 28.8697 38.2989 28.8539C38.2986 28.7943 38.2983 28.7369 38.2983 28.6816C38.2983 26.3143 38.1548 22.4111 38.0499 19.5611C37.9962 18.0966 37.9535 16.94 37.9535 16.5857C37.9535 16.5558 37.9539 16.5229 37.9546 16.4879C37.9548 16.4769 37.9552 16.4646 37.9555 16.4532C37.9562 16.4282 37.9568 16.4029 37.9578 16.3755C37.9583 16.3601 37.959 16.3438 37.9596 16.3277C37.9607 16.3023 37.9618 16.2763 37.963 16.2491C37.9638 16.2311 37.9648 16.2122 37.9658 16.1933C37.9672 16.1658 37.9687 16.1377 37.9704 16.1088C37.9716 16.0887 37.9728 16.0683 37.9742 16.0476C37.976 16.0171 37.9782 15.9856 37.9803 15.9536C37.9816 15.933 37.9831 15.9125 37.9846 15.8913C37.987 15.8568 37.9896 15.8211 37.9924 15.7853C37.994 15.7644 37.9955 15.744 37.9972 15.7227C38.0006 15.6812 38.0041 15.6382 38.0078 15.595C38.0091 15.5782 38.0105 15.562 38.0119 15.545C38.0173 15.4833 38.0229 15.4202 38.029 15.3555C38.0293 15.3526 38.0295 15.3495 38.0299 15.3465C38.0357 15.2852 38.0418 15.2225 38.0482 15.1588C38.0502 15.1392 38.0523 15.119 38.0543 15.0993C38.0593 15.0518 38.0642 15.004 38.0695 14.9554C38.0724 14.9297 38.0753 14.9036 38.0781 14.8776C38.0829 14.8337 38.0878 14.7895 38.093 14.7447C38.0962 14.7166 38.0997 14.6881 38.103 14.6597C38.1084 14.6151 38.1137 14.5702 38.1193 14.525C38.1228 14.4963 38.1264 14.4675 38.1301 14.4386C38.1358 14.3924 38.1418 14.3458 38.148 14.2991C38.1517 14.2708 38.1553 14.2424 38.1591 14.214C38.1657 14.1642 38.1727 14.1139 38.1796 14.0635C38.1832 14.0374 38.1867 14.0116 38.1904 13.9853C38.1987 13.9268 38.2072 13.8679 38.2159 13.8088C38.2185 13.7903 38.2212 13.772 38.224 13.7534C38.2356 13.6753 38.2476 13.597 38.2602 13.5182C38.262 13.5063 38.264 13.4944 38.2659 13.4825C38.2764 13.4164 38.2871 13.3503 38.2982 13.284C38.3023 13.2588 38.3067 13.2338 38.3111 13.2086C38.3202 13.1553 38.3294 13.102 38.3387 13.0487C38.3438 13.0199 38.3491 12.9911 38.3543 12.9622C38.3634 12.9123 38.3725 12.8624 38.3818 12.8126C38.3874 12.7828 38.3932 12.7529 38.3988 12.7232C38.4081 12.6744 38.4177 12.6257 38.4273 12.5772C38.4332 12.5475 38.4392 12.5179 38.4452 12.4883C38.4553 12.4383 38.4659 12.3887 38.4763 12.339C38.482 12.3117 38.4877 12.2843 38.4937 12.2573C38.5051 12.2045 38.5168 12.1522 38.5287 12.0999C38.5342 12.0762 38.5394 12.0523 38.5448 12.0286C38.5599 11.9636 38.5752 11.8992 38.5909 11.8353C38.5933 11.8254 38.5955 11.8154 38.5981 11.8055C38.6165 11.7306 38.6354 11.6567 38.6546 11.5838C38.6581 11.5707 38.6617 11.558 38.6653 11.5449C38.6809 11.4867 38.6965 11.4292 38.7126 11.3725C38.719 11.35 38.7257 11.328 38.7321 11.3058C38.7457 11.2591 38.7595 11.2125 38.7735 11.1668C38.7809 11.1424 38.7885 11.1186 38.796 11.0946C38.8095 11.0521 38.823 11.0097 38.8367 10.9682C38.8448 10.9439 38.853 10.9197 38.8612 10.8958C38.875 10.8557 38.8888 10.8164 38.9029 10.7774C38.9113 10.7541 38.9197 10.7308 38.9282 10.7079C38.9334 10.694 38.9389 10.6807 38.9441 10.6669C39.684 11.3969 41.0086 13.0213 41.1983 15.425ZM38.0393 10.0576C38.0366 10.0639 38.0341 10.0707 38.0314 10.077C38.0198 10.105 38.0085 10.1341 37.997 10.1626C37.9812 10.202 37.9655 10.2412 37.9502 10.2816C37.9384 10.3124 37.9271 10.344 37.9156 10.3754C37.9011 10.4153 37.8865 10.4552 37.8724 10.4959C37.8609 10.5287 37.8497 10.5621 37.8385 10.5954C37.8248 10.6364 37.8112 10.6776 37.7977 10.7194C37.7868 10.7536 37.776 10.788 37.7651 10.8225C37.7519 10.8651 37.739 10.908 37.7262 10.9512C37.7158 10.9862 37.7055 11.0213 37.6954 11.0567C37.6827 11.1011 37.6702 11.1459 37.6579 11.1909C37.6482 11.226 37.6386 11.2611 37.6291 11.2966C37.6165 11.3434 37.6044 11.3909 37.5923 11.4384C37.5835 11.4729 37.5745 11.5072 37.5659 11.542C37.5533 11.5924 37.5413 11.6432 37.5292 11.694C37.5213 11.7268 37.5134 11.7593 37.5057 11.7922C37.4912 11.8551 37.477 11.9186 37.463 11.9821C37.4583 12.003 37.4535 12.0236 37.449 12.0445C37.4307 12.1289 37.413 12.2135 37.3956 12.2985C37.3899 12.3266 37.3846 12.3548 37.379 12.3829C37.3675 12.4407 37.3559 12.4986 37.3448 12.5566C37.3382 12.5915 37.3319 12.6265 37.3253 12.6614C37.3159 12.7125 37.3063 12.7636 37.2972 12.8146C37.2904 12.8524 37.2839 12.89 37.2773 12.9278C37.2689 12.9763 37.2604 13.0247 37.2522 13.0731C37.2457 13.1114 37.2396 13.1496 37.2332 13.1878C37.2253 13.2358 37.2176 13.2836 37.21 13.3314C37.204 13.3694 37.1981 13.4072 37.1922 13.4451C37.1849 13.4924 37.1778 13.5395 37.1707 13.5865C37.1651 13.6245 37.1595 13.6623 37.1541 13.7001C37.1473 13.7471 37.1406 13.7937 37.1342 13.8403C37.129 13.8768 37.1239 13.9134 37.119 13.9497C37.1125 13.9971 37.1063 14.0441 37.1 14.091C37.0955 14.1258 37.0908 14.1607 37.0863 14.1953C37.0802 14.2436 37.0743 14.2912 37.0683 14.3387C37.0643 14.371 37.0602 14.4035 37.0563 14.4354C37.0499 14.4888 37.0438 14.5412 37.0378 14.5937C37.035 14.6185 37.0319 14.6439 37.0291 14.6684C37.0205 14.7445 37.0123 14.8195 37.0045 14.893C37.0027 14.9109 37.0009 14.9281 36.9991 14.9459C36.9933 15.0017 36.9876 15.0572 36.9823 15.1114C36.9797 15.1376 36.9773 15.1628 36.9749 15.1885C36.9707 15.2333 36.9664 15.2778 36.9624 15.3212C36.96 15.3482 36.9577 15.3741 36.9554 15.4005C36.9518 15.4408 36.9484 15.4809 36.9452 15.5198C36.9429 15.547 36.9408 15.5734 36.9386 15.5999C36.9357 15.6362 36.9329 15.6721 36.9302 15.7072C36.9282 15.7337 36.9264 15.7593 36.9245 15.785C36.9221 15.8181 36.9198 15.8503 36.9177 15.8821C36.916 15.9074 36.9144 15.9322 36.9128 15.9565C36.9108 15.9872 36.9089 16.0169 36.9072 16.0461C36.9058 16.0685 36.9045 16.0906 36.9033 16.112C36.9017 16.1409 36.9002 16.1685 36.8989 16.196C36.8978 16.2159 36.8969 16.2361 36.896 16.2552C36.8948 16.2821 36.8937 16.3072 36.8927 16.3323C36.8921 16.3486 36.8914 16.3658 36.8909 16.3813C36.89 16.4085 36.8893 16.4333 36.8887 16.4579C36.8885 16.469 36.8881 16.4813 36.8878 16.4919C36.8871 16.5259 36.8867 16.5575 36.8867 16.5857C36.8867 16.9597 36.9276 18.0674 36.984 19.6006C37.0884 22.4423 37.2316 26.3341 37.2316 28.6816C37.2316 28.7349 37.2317 28.7905 37.232 28.8476C37.2321 28.8656 37.2322 28.8846 37.2324 28.9029C37.2326 28.9429 37.2329 28.983 37.2333 29.0247C37.2334 29.0474 37.2337 29.071 37.234 29.0943C37.2344 29.1338 37.2349 29.1737 37.2354 29.2147C37.2357 29.2396 37.2361 29.2649 37.2365 29.2904C37.237 29.3316 37.2377 29.3734 37.2385 29.416C37.2389 29.4424 37.2394 29.4689 37.2398 29.4958C37.2406 29.5385 37.2414 29.582 37.2422 29.6259C37.2428 29.6543 37.2433 29.6826 37.244 29.7115C37.2449 29.7585 37.246 29.8067 37.247 29.8551C37.2476 29.8813 37.2482 29.9072 37.2488 29.9338C37.2501 29.9943 37.2516 30.0562 37.2532 30.1188C37.2536 30.1344 37.2538 30.1496 37.2542 30.1654C37.2563 30.2428 37.2583 30.3216 37.2604 30.4018C37.2612 30.4329 37.2621 30.4649 37.2631 30.4964C37.2645 30.5484 37.2659 30.6003 37.2675 30.6532C37.2684 30.688 37.2695 30.7235 37.2705 30.7587C37.272 30.8094 37.2735 30.8601 37.2751 30.9115C37.2761 30.948 37.2773 30.9849 37.2784 31.0217C37.28 31.0734 37.2816 31.1254 37.2833 31.1779C37.2845 31.2162 37.2857 31.2547 37.2871 31.2936C37.2888 31.3465 37.2905 31.3998 37.2923 31.4535C37.2936 31.4914 37.2948 31.5293 37.296 31.5674C37.298 31.6252 37.3 31.6837 37.302 31.7422C37.3032 31.778 37.3044 31.8136 37.3056 31.8497C37.3079 31.9137 37.3101 31.9786 37.3124 32.0435C37.3135 32.0752 37.3147 32.1064 37.3157 32.1383C37.3191 32.2327 37.3225 32.3281 37.3261 32.4242C37.3278 32.4687 37.3295 32.5139 37.3312 32.5588C37.3331 32.6104 37.3351 32.6618 37.337 32.7137C37.339 32.7657 37.341 32.8182 37.3428 32.8706C37.3447 32.9208 37.3467 32.971 37.3486 33.0216C37.3506 33.0718 37.3524 33.1223 37.3544 33.1728C37.3564 33.2256 37.3586 33.2785 37.3607 33.3316C37.3627 33.3812 37.3646 33.431 37.3666 33.4808C37.3686 33.5326 37.3707 33.5846 37.3728 33.6367C37.375 33.6911 37.3772 33.7456 37.3794 33.8003C37.3812 33.846 37.3831 33.8918 37.385 33.9376C37.3875 33.9984 37.3899 34.0592 37.3924 34.1202C37.3946 34.1727 37.3968 34.2256 37.399 34.2784C37.401 34.3269 37.403 34.3751 37.405 34.4236C37.4069 34.4698 37.4089 34.5162 37.4109 34.5627C37.4175 34.7221 37.4243 34.8821 37.4313 35.0429C37.4313 35.0433 37.4313 35.0436 37.4313 35.044C37.4341 35.1089 37.4369 35.174 37.4397 35.2391C37.4418 35.2874 37.4438 35.3357 37.4459 35.384C37.4487 35.4488 37.4515 35.5138 37.4545 35.5787C37.4559 35.6133 37.4574 35.6478 37.459 35.6824C37.4625 35.7618 37.4659 35.8412 37.4695 35.9206C37.4707 35.9478 37.4719 35.9751 37.4731 36.0023C37.4765 36.0761 37.4797 36.1497 37.483 36.2236C37.4845 36.256 37.486 36.2886 37.4874 36.321C37.5185 37.0149 37.5507 37.7094 37.5827 38.3877C37.5829 38.3924 37.5831 38.3969 37.5833 38.4016C37.7107 41.0965 37.8368 43.5249 37.8924 44.5791C36.0988 44.6084 30.2136 44.7012 24.1557 44.756C24.1762 44.6992 24.1953 44.6416 24.2157 44.5847C24.2715 44.4288 24.3258 44.2721 24.3802 44.1155C24.4462 43.9253 24.5121 43.7352 24.5763 43.5441C24.6299 43.384 24.6823 43.2233 24.7346 43.0626C24.7962 42.8733 24.8573 42.6838 24.9171 42.4936C24.9683 42.3304 25.0183 42.1667 25.0681 42.0028C25.1256 41.8135 25.1824 41.6239 25.238 41.4337C25.2866 41.2675 25.3342 41.1009 25.3813 40.9341C25.4348 40.7447 25.4874 40.5551 25.539 40.3649C25.5847 40.1962 25.6297 40.0272 25.674 39.8578C25.7237 39.6676 25.7723 39.4771 25.8202 39.2861C25.8629 39.1157 25.905 38.9449 25.9462 38.7739C25.9923 38.5825 26.0372 38.3906 26.0814 38.1986C26.121 38.0264 26.1603 37.8542 26.1983 37.6814C26.2409 37.4887 26.2818 37.2955 26.3225 37.1021C26.3589 36.9288 26.3952 36.7555 26.4302 36.5817C26.4693 36.387 26.5066 36.1915 26.5438 35.996C26.5769 35.8222 26.6101 35.6483 26.6417 35.4739C26.6774 35.2767 26.7112 35.0789 26.7449 34.8811C26.7746 34.7071 26.8048 34.5332 26.8329 34.3586C26.8653 34.1581 26.8956 33.9569 26.926 33.7557C26.9522 33.5827 26.979 33.4098 27.0038 33.2363C27.0331 33.031 27.0599 32.8248 27.0871 32.6188C27.1097 32.4481 27.1332 32.2777 27.1544 32.1066C27.1807 31.8941 27.2043 31.6807 27.2284 31.4674C27.2472 31.3016 27.2671 31.1362 27.2846 30.9699C27.3082 30.746 27.3286 30.5212 27.3498 30.2965C27.3646 30.1396 27.3807 29.9832 27.3943 29.826C27.416 29.5763 27.4344 29.3256 27.453 29.0749C27.463 28.9418 27.4747 28.8092 27.4837 28.6758C27.5099 28.294 27.5328 27.9112 27.5522 27.5274C27.5522 27.5272 27.5522 27.5271 27.5522 27.527C27.5523 27.5244 27.5524 27.522 27.5526 27.5195C27.5528 27.5143 27.5519 27.509 27.552 27.5038C27.5526 27.4813 27.5519 27.459 27.5495 27.4366C27.5488 27.4307 27.5484 27.4248 27.5476 27.4189C27.5467 27.4119 27.5449 27.4054 27.5437 27.3986C27.5409 27.3826 27.5372 27.3668 27.5329 27.3511C27.5304 27.3418 27.5279 27.3324 27.5248 27.3232C27.5232 27.3181 27.522 27.3129 27.5201 27.3079C27.5149 27.2937 27.5081 27.28 27.5017 27.2662C27.498 27.2582 27.4948 27.2499 27.4907 27.2421C27.4879 27.2367 27.4848 27.2313 27.4817 27.2258C27.4775 27.2183 27.4724 27.2115 27.4678 27.2044C27.4602 27.1923 27.4533 27.18 27.4446 27.1685C27.443 27.1663 27.3577 27.0533 27.2043 26.8476C27.2008 26.8431 27.1973 26.8383 27.1937 26.8336C27.1785 26.8132 27.1618 26.7907 27.1453 26.7686C27.1076 26.7177 27.0666 26.6627 27.0223 26.603C27.0755 26.5803 27.1284 26.5577 27.1813 26.5351C27.2159 26.5203 27.2507 26.5055 27.2852 26.4908C27.4713 26.4108 27.6551 26.331 27.8364 26.251C27.8659 26.2381 27.895 26.2249 27.9243 26.2119C27.9853 26.1849 28.0461 26.1578 28.1064 26.1309C28.1407 26.1155 28.1744 26.1001 28.2084 26.0849C28.2635 26.0599 28.3186 26.035 28.3731 26.0101C28.4089 25.9937 28.4444 25.9773 28.48 25.9609C28.5314 25.9372 28.5829 25.9134 28.6337 25.8897C28.6711 25.8723 28.7081 25.8548 28.7452 25.8372C28.7942 25.8142 28.843 25.791 28.8914 25.768C28.9282 25.7505 28.9647 25.7328 29.0012 25.7153C29.049 25.6922 29.0966 25.6691 29.1439 25.6459C29.1807 25.6278 29.2172 25.6097 29.2536 25.5918C29.2995 25.569 29.3451 25.5463 29.3904 25.5234C29.427 25.5049 29.4633 25.4865 29.4996 25.4681C29.5443 25.4452 29.5887 25.4223 29.6328 25.3994C29.6683 25.3809 29.7038 25.3624 29.7389 25.3439C29.7829 25.3207 29.8265 25.2974 29.87 25.274C29.9043 25.2555 29.9387 25.2372 29.9726 25.2187C30.0159 25.195 30.0587 25.1713 30.1016 25.1475C30.1344 25.1291 30.1675 25.1109 30.1999 25.0926C30.2434 25.0679 30.286 25.0433 30.3289 25.0185C30.3595 25.0008 30.3905 24.9831 30.4206 24.9653C30.4648 24.9394 30.508 24.9132 30.5512 24.8871C30.5792 24.8703 30.6077 24.8534 30.6354 24.8365C30.6824 24.8077 30.7282 24.7787 30.7743 24.7497C30.7971 24.7353 30.8204 24.7209 30.8431 24.7065C30.911 24.663 30.9778 24.6192 31.0435 24.5751C31.0468 24.5728 31.0501 24.5704 31.0535 24.5681C31.1155 24.5264 31.1764 24.4842 31.2363 24.4419C31.2574 24.427 31.2777 24.4119 31.2984 24.3969C31.3397 24.367 31.3812 24.3371 31.4215 24.307C31.4458 24.2889 31.4691 24.2706 31.493 24.2522C31.5286 24.2249 31.5644 24.1976 31.5992 24.1702C31.6238 24.1506 31.6477 24.1308 31.672 24.1111C31.7046 24.0846 31.7371 24.0581 31.7687 24.0314C31.793 24.0109 31.8166 23.9902 31.8403 23.9696C31.8708 23.9432 31.9009 23.9168 31.9305 23.8901C31.9537 23.8691 31.9765 23.848 31.9992 23.8268C32.0276 23.8003 32.0559 23.7736 32.0835 23.747C32.1058 23.7253 32.1278 23.7035 32.1496 23.6816C32.1761 23.6549 32.2024 23.6281 32.228 23.6012C32.2489 23.5791 32.2697 23.557 32.2901 23.5347C32.3152 23.5074 32.3396 23.4801 32.3638 23.4525C32.3833 23.4301 32.4027 23.4078 32.4215 23.3854C32.445 23.3574 32.4678 23.3293 32.4904 23.3011C32.5082 23.2786 32.5263 23.2562 32.5435 23.2336C32.5656 23.2046 32.5867 23.1754 32.6078 23.1462C32.6239 23.1239 32.6403 23.1015 32.6558 23.0789C32.6765 23.0489 32.6961 23.0185 32.7155 22.9881C32.7298 22.9659 32.7445 22.9438 32.7582 22.9214C32.7778 22.8894 32.7961 22.857 32.8144 22.8246C32.8264 22.8034 32.8389 22.7824 32.8504 22.7611C32.8699 22.725 32.8876 22.6884 32.9055 22.6517C32.9143 22.6336 32.9239 22.6158 32.9323 22.5976C32.9578 22.5426 32.9817 22.4871 33.0037 22.4311C33.0684 22.2658 33.0472 22.0788 32.947 21.9322C32.8768 21.8296 32.807 21.7253 32.7376 21.6198C32.7161 21.5872 32.6947 21.5539 32.6734 21.5211C32.6252 21.4471 32.5771 21.3728 32.5292 21.2974C32.5041 21.2581 32.4793 21.218 32.4544 21.1782C32.4103 21.1081 32.3666 21.0376 32.3228 20.9664C32.2966 20.9237 32.2705 20.8804 32.2444 20.8373C32.2017 20.7667 32.1592 20.6955 32.1167 20.6238C32.091 20.5803 32.0654 20.5367 32.0396 20.4927C31.9966 20.4188 31.9536 20.3442 31.9108 20.2691C31.8864 20.2264 31.8621 20.1839 31.8377 20.1408C31.7919 20.0595 31.7463 19.9772 31.7008 19.8945C31.68 19.8569 31.6592 19.8197 31.6385 19.7817C31.5802 19.6747 31.5222 19.5663 31.4644 19.457C31.457 19.4428 31.4494 19.4291 31.4419 19.4149C31.3761 19.2899 31.3108 19.1636 31.2457 19.0359C31.2294 19.0039 31.2133 18.9712 31.197 18.9391C31.1492 18.8445 31.1015 18.7496 31.0541 18.6536C31.0309 18.6064 31.0078 18.5586 30.9848 18.5112C30.9445 18.4286 30.9043 18.3458 30.8644 18.2621C30.8392 18.2094 30.8142 18.1561 30.7892 18.1029C30.7515 18.0228 30.7138 17.9422 30.6764 17.8612C30.6509 17.8059 30.6253 17.7504 30.5999 17.6947C30.5627 17.6132 30.5258 17.531 30.4888 17.4485C30.464 17.3932 30.4393 17.3379 30.4146 17.2821C30.3765 17.1956 30.3385 17.1083 30.3006 17.0209C30.2778 16.9681 30.2548 16.9156 30.232 16.8626C30.1895 16.7632 30.1473 16.6627 30.1052 16.562C30.0876 16.5198 30.0697 16.4781 30.0521 16.4357C30.0501 16.4309 30.0481 16.4258 30.0461 16.4209C30.0685 16.4244 30.0902 16.4266 30.1126 16.4299C30.2975 16.4579 30.4807 16.4828 30.662 16.5044C30.6898 16.5077 30.7182 16.5116 30.7461 16.5148C30.9413 16.537 31.134 16.5547 31.3252 16.5693C31.3655 16.5724 31.4056 16.5751 31.4458 16.5779C31.6392 16.591 31.8311 16.6016 32.0206 16.6069C32.0274 16.6071 32.0339 16.6071 32.0406 16.6072C32.1625 16.6104 32.2837 16.6124 32.4041 16.6124C32.4717 16.6124 32.5387 16.6108 32.6058 16.6098C32.6312 16.6094 32.6569 16.6094 32.6822 16.6088C32.8637 16.6049 33.0434 16.5969 33.2215 16.5855C33.2513 16.5836 33.2811 16.5816 33.3109 16.5796C33.487 16.567 33.6614 16.5508 33.8342 16.5309C33.8626 16.5275 33.8909 16.5239 33.9191 16.5204C34.0942 16.4989 34.2678 16.4741 34.4397 16.4449C34.4605 16.4414 34.481 16.4373 34.5018 16.4337C34.6803 16.4023 34.8574 16.3676 35.0326 16.328C35.0343 16.3276 35.0361 16.3273 35.0378 16.3269C35.2113 16.2876 35.3465 16.167 35.4114 16.0134C35.4504 15.9213 35.4641 15.8173 35.4457 15.7117C35.4401 15.6792 35.4214 15.5737 35.3906 15.4084C35.3905 15.4077 35.3903 15.4072 35.3903 15.4065C35.3751 15.3246 35.3569 15.2278 35.3358 15.1177C35.3354 15.1153 35.3349 15.113 35.3345 15.1106C35.3138 15.0032 35.2904 14.8833 35.2644 14.752C35.2628 14.7441 35.2614 14.7364 35.2598 14.7285C35.2469 14.664 35.2335 14.5972 35.2195 14.5275C35.2183 14.5219 35.2171 14.516 35.216 14.5104C35.2023 14.4422 35.1879 14.3718 35.1729 14.2991C35.1718 14.2938 35.1709 14.2889 35.1698 14.2837C35.1544 14.2084 35.1381 14.1306 35.1214 14.0507C35.1193 14.0409 35.1173 14.031 35.1152 14.0211C35.0817 13.8614 35.0457 13.6932 35.0072 13.5175C35.004 13.5028 35.0008 13.4881 34.9975 13.4732C34.9783 13.3852 34.9585 13.2959 34.9381 13.2046C34.9375 13.2016 34.9368 13.1986 34.9361 13.1956C34.9167 13.1082 34.8964 13.0189 34.8758 12.9285C34.8722 12.9124 34.8686 12.8966 34.8649 12.8804C34.844 12.7888 34.8226 12.6958 34.8006 12.6017C34.7967 12.585 34.7927 12.5682 34.7889 12.5515C34.7689 12.4659 34.7485 12.3793 34.7276 12.2917C34.7242 12.277 34.7207 12.2624 34.7171 12.2476C34.6942 12.1516 34.6707 12.0544 34.6467 11.9565C34.6413 11.9349 34.6361 11.9133 34.6308 11.8916C34.6068 11.7938 34.5825 11.6954 34.5576 11.5957C34.5565 11.5915 34.5554 11.5872 34.5544 11.5829C34.5293 11.4831 34.5037 11.3823 34.4777 11.281C34.4714 11.2567 34.4651 11.2323 34.4589 11.2078C34.4328 11.1067 34.4063 11.0052 34.3794 10.903C34.375 10.8861 34.3704 10.8693 34.3659 10.8524C34.3419 10.7617 34.3175 10.6708 34.2927 10.5795C34.2863 10.5558 34.2798 10.5321 34.2733 10.5084C34.2457 10.407 34.2176 10.3053 34.1891 10.2034C34.1819 10.1779 34.1747 10.1524 34.1675 10.1268C34.1422 10.0367 34.1166 9.94659 34.0906 9.8562C34.0851 9.83705 34.0796 9.81803 34.0742 9.79902C34.0445 9.69671 34.0144 9.59426 33.984 9.49195C33.9758 9.4645 33.9676 9.43705 33.9594 9.4096C33.9282 9.30541 33.8967 9.20123 33.8647 9.09717C33.8613 9.08606 33.8578 9.07494 33.8543 9.0637C33.825 8.96862 33.7951 8.87367 33.7649 8.77899C33.7561 8.75114 33.7473 8.72342 33.7384 8.6957C33.7061 8.59486 33.6734 8.49443 33.6404 8.39439C33.6328 8.37149 33.6252 8.34873 33.6175 8.32583C33.5886 8.23919 33.5595 8.15281 33.53 8.06697C33.5219 8.04327 33.5139 8.01957 33.5058 7.99586C33.4717 7.89744 33.4373 7.79968 33.4025 7.70259C33.3929 7.67581 33.3833 7.64916 33.3736 7.62251C33.3416 7.53399 33.3094 7.44601 33.2767 7.3587C33.2714 7.34451 33.2662 7.33018 33.261 7.31612C33.2248 7.21983 33.1882 7.12475 33.1512 7.03021C33.1459 7.01642 33.1405 7.00222 33.1352 6.98843C34.7653 8.27601 36.4063 9.3038 38.0393 10.0576ZM25.5578 26.8427C25.513 26.8389 25.4683 26.8353 25.4231 26.8316C25.3844 26.8284 25.3454 26.825 25.3066 26.8218C25.2649 26.8183 25.2231 26.8148 25.1811 26.8112C25.1396 26.8077 25.0978 26.8041 25.0561 26.8005C25.0183 26.7973 24.9807 26.7941 24.9428 26.7907C24.8963 26.7867 24.8496 26.7827 24.8029 26.7785C24.7686 26.7756 24.7344 26.7725 24.6999 26.7694C24.6539 26.7654 24.6075 26.7613 24.5612 26.7571C24.5237 26.7538 24.4861 26.7504 24.4485 26.7471C24.4035 26.743 24.3586 26.739 24.3135 26.7349C24.2759 26.7315 24.2383 26.728 24.2005 26.7246C24.1548 26.7204 24.1089 26.7161 24.0628 26.712C24.0244 26.7085 23.9858 26.7049 23.9472 26.7013C23.9026 26.6971 23.858 26.693 23.8133 26.6888C23.7719 26.6849 23.7306 26.681 23.6892 26.677C23.6457 26.6729 23.6022 26.6689 23.5586 26.6647C23.5189 26.661 23.479 26.6571 23.4391 26.6532C23.3931 26.6488 23.3471 26.6444 23.3009 26.6399C23.271 26.637 23.2409 26.634 23.211 26.6311C23.0066 26.6111 22.8015 26.5907 22.5957 26.5698C22.5787 26.568 22.5616 26.5663 22.5447 26.5645C22.494 26.5593 22.4432 26.5541 22.3924 26.5489C22.3562 26.5451 22.3201 26.5414 22.2838 26.5376C22.2358 26.5327 22.1876 26.5276 22.1396 26.5225C22.1017 26.5185 22.0638 26.5146 22.0259 26.5106C21.9778 26.5055 21.9296 26.5004 21.8815 26.4952C21.8437 26.4912 21.806 26.4871 21.7682 26.4831C21.7191 26.4779 21.67 26.4725 21.621 26.4672C21.5847 26.4633 21.5484 26.4593 21.5121 26.4554C21.4619 26.4499 21.4118 26.4444 21.3618 26.4389C21.3256 26.4349 21.2895 26.4309 21.2535 26.4269C21.2057 26.4215 21.1579 26.4162 21.1102 26.4108C21.0707 26.4064 21.0312 26.402 20.9917 26.3974C20.9443 26.3921 20.8969 26.3867 20.8495 26.3812C20.8145 26.3772 20.7794 26.3732 20.7443 26.3692C20.6931 26.3633 20.6418 26.3574 20.5908 26.3513C20.5574 26.3475 20.5241 26.3436 20.4908 26.3397C20.4398 26.3337 20.3887 26.3278 20.3377 26.3216C20.3036 26.3176 20.2695 26.3134 20.2354 26.3094C20.1851 26.3034 20.1347 26.2974 20.0845 26.2914C20.0469 26.2868 20.0094 26.2822 19.9718 26.2776C19.9259 26.2719 19.88 26.2664 19.8344 26.2608C19.8003 26.2567 19.7664 26.2524 19.7322 26.2481C19.637 26.2363 19.542 26.2244 19.4476 26.2123C19.4126 26.2079 19.3774 26.2035 19.3425 26.1991C19.2963 26.1932 19.2504 26.1872 19.2045 26.1813C19.1686 26.1766 19.1326 26.172 19.0969 26.1673C19.0513 26.1615 19.006 26.1554 18.9608 26.1494C18.9239 26.1446 18.8869 26.1396 18.8501 26.1348C18.8062 26.1289 18.7626 26.123 18.719 26.1173C18.6818 26.1123 18.6445 26.1072 18.6075 26.1023C18.5638 26.0964 18.5206 26.0903 18.4773 26.0845C18.4409 26.0795 18.4044 26.0744 18.3683 26.0695C18.3249 26.0634 18.2817 26.0574 18.2386 26.0514C18.2019 26.0462 18.1654 26.0411 18.1288 26.0358C18.0875 26.03 18.0463 26.0241 18.0052 26.0182C17.9678 26.0128 17.9306 26.0075 17.8934 26.002C17.8527 25.9961 17.8122 25.9902 17.7718 25.9842C17.7349 25.9788 17.6985 25.9733 17.662 25.9678C17.6224 25.9619 17.5827 25.956 17.5434 25.9501C17.5066 25.9447 17.4702 25.939 17.4337 25.9334C17.3944 25.9274 17.3548 25.9214 17.3157 25.9153C17.279 25.9097 17.2427 25.9039 17.2062 25.8982C17.1695 25.8924 17.1327 25.8867 17.0963 25.8809C17.0528 25.8741 17.0099 25.8671 16.967 25.8602C16.9371 25.8553 16.907 25.8506 16.8774 25.8458C16.8073 25.8344 16.7381 25.8231 16.6694 25.8115C16.6362 25.806 16.6036 25.8004 16.5707 25.7948C16.5336 25.7885 16.4964 25.7823 16.4598 25.7761C16.4274 25.7704 16.3955 25.7649 16.3635 25.7593C16.3264 25.7529 16.2892 25.7465 16.2525 25.7399C16.2207 25.7343 16.1894 25.7286 16.158 25.723C16.1231 25.7167 16.0883 25.7106 16.0539 25.7043C16.0215 25.6984 15.9895 25.6924 15.9575 25.6865C15.9236 25.6802 15.8897 25.6739 15.8562 25.6676C15.8262 25.662 15.7966 25.6563 15.767 25.6506C15.7327 25.644 15.6986 25.6375 15.6647 25.6309C15.6356 25.6253 15.6068 25.6195 15.5781 25.6139C15.5448 25.6073 15.5118 25.6008 15.4791 25.5941C15.4511 25.5884 15.4231 25.5827 15.3955 25.5771C15.3628 25.5704 15.3305 25.5637 15.2985 25.557C15.2717 25.5513 15.2449 25.5457 15.2183 25.5401C15.187 25.5334 15.156 25.5267 15.1252 25.52C15.0988 25.5143 15.0723 25.5085 15.0463 25.5027C15.0161 25.496 14.9868 25.4893 14.9573 25.4826C14.9319 25.4769 14.9063 25.4711 14.8814 25.4654C14.8506 25.4583 14.8206 25.451 14.7904 25.4439C14.7681 25.4387 14.7455 25.4334 14.7237 25.4281C14.6841 25.4185 14.6455 25.409 14.6071 25.3994C14.5957 25.3965 14.5838 25.3936 14.5724 25.3908C14.5234 25.3783 14.4753 25.3659 14.4285 25.3534C14.4125 25.3491 14.3973 25.3448 14.3816 25.3406C14.3509 25.3323 14.3202 25.324 14.2905 25.3155C14.2723 25.3104 14.2548 25.3053 14.2371 25.3001C14.211 25.2926 14.1848 25.2851 14.1596 25.2776C14.1413 25.2721 14.1236 25.2666 14.1057 25.2612C14.0821 25.2539 14.0586 25.2468 14.0359 25.2396C14.0182 25.234 14.001 25.2283 13.9837 25.2227C13.962 25.2156 13.9406 25.2085 13.9196 25.2014C13.9029 25.1958 13.8868 25.1902 13.8708 25.1846C13.8504 25.1773 13.8302 25.1702 13.8106 25.163C13.7954 25.1574 13.7805 25.1519 13.766 25.1463C13.7469 25.139 13.7282 25.1318 13.7101 25.1244C13.6961 25.1188 13.6822 25.1133 13.6687 25.1077C13.6512 25.1005 13.6343 25.0932 13.6178 25.086C13.6049 25.0804 13.5921 25.0749 13.58 25.0693C13.5637 25.0619 13.5483 25.0544 13.5329 25.047C13.5218 25.0417 13.5105 25.0363 13.4998 25.031C13.4846 25.0232 13.4706 25.0156 13.4565 25.0078C13.4471 25.0027 13.4373 24.9976 13.4285 24.9925C13.4137 24.9841 13.4003 24.9755 13.3868 24.9671C13.38 24.9628 13.3726 24.9584 13.366 24.9541C13.3468 24.9412 13.3288 24.9285 13.3127 24.9157C13.3037 24.9061 13.2435 24.8333 13.2144 24.5767C13.2109 24.5465 13.208 24.5138 13.2056 24.4783C13.2008 24.4073 13.1981 24.3254 13.1989 24.231C13.2064 23.2626 13.564 20.9774 15.4267 15.6843C15.4267 15.6841 15.4267 15.684 15.4267 15.684C15.4813 15.5288 15.5355 15.3756 15.5894 15.2248C15.5916 15.2188 15.5937 15.2129 15.5958 15.2069C15.6209 15.1366 15.646 15.0665 15.6708 14.9973C15.6716 14.9953 15.6723 14.9931 15.6731 14.9911C15.6991 14.9187 15.725 14.8469 15.7507 14.7757C15.7514 14.7739 15.752 14.7722 15.7526 14.7703C15.7785 14.6989 15.8041 14.6281 15.8295 14.5582C15.8301 14.5569 15.8305 14.5555 15.831 14.5542C15.8562 14.4849 15.8812 14.4165 15.906 14.3488C15.9073 14.3449 15.9088 14.3411 15.9101 14.3372C16.1654 13.6394 16.3977 13.0238 16.5827 12.5412C16.6498 12.6695 16.7193 12.8002 16.7894 12.9315C16.8 12.9511 16.8097 12.97 16.8203 12.9897C16.9091 13.1553 17.0009 13.3238 17.0945 13.4942C17.1231 13.5462 17.1529 13.5994 17.182 13.6517C17.2486 13.7717 17.3155 13.8924 17.3844 14.0146C17.4212 14.0801 17.4592 14.1467 17.4967 14.2128C17.5605 14.3251 17.6248 14.4379 17.6904 14.552C17.7307 14.6221 17.7715 14.6925 17.8126 14.7634C17.879 14.878 17.9465 14.9935 18.0148 15.1101C18.0559 15.1801 18.097 15.2501 18.1389 15.3207C18.2117 15.4438 18.2859 15.5683 18.3607 15.6933C18.3999 15.7587 18.4385 15.8237 18.4782 15.8896C18.5684 16.0393 18.6604 16.1907 18.7535 16.3433C18.7793 16.3856 18.8044 16.427 18.8304 16.4696C18.9516 16.6676 19.0754 16.8679 19.2016 17.0706C19.2235 17.1056 19.2463 17.1417 19.2683 17.177C19.3719 17.3431 19.4769 17.5103 19.5838 17.6796C19.6261 17.7466 19.6695 17.8146 19.7124 17.8819C19.8013 18.022 19.8908 18.1626 19.9818 18.3046C20.0309 18.381 20.0807 18.4583 20.1303 18.5353C20.2179 18.6714 20.3065 18.8082 20.3961 18.9462C20.4482 19.0262 20.5004 19.1066 20.5531 19.1872C20.6442 19.3267 20.7366 19.4674 20.8297 19.6088C20.8817 19.6878 20.9334 19.7667 20.9861 19.8463C21.0874 19.9994 21.1902 20.1539 21.2936 20.3091C21.3395 20.378 21.3847 20.4461 21.431 20.5154C21.5797 20.7377 21.7305 20.9617 21.8837 21.1883C21.8852 21.1904 21.8865 21.1926 21.8881 21.1948C22.1745 21.6188 22.4572 22.0327 22.7336 22.4337C22.8901 22.6607 23.0439 22.8826 23.1958 23.1008C23.2609 23.1943 23.3252 23.2866 23.3892 23.3782C23.4762 23.5026 23.5622 23.6254 23.6473 23.7464C24.474 24.9229 25.2066 25.9357 25.7595 26.6899C25.7596 26.69 25.7597 26.6901 25.7597 26.6903C25.8051 26.7522 25.8489 26.8117 25.8911 26.8691C25.8139 26.8629 25.7361 26.8566 25.6578 26.8502C25.6246 26.8483 25.5911 26.8455 25.5578 26.8427ZM15.7531 7.88177C15.7307 7.80075 15.7107 7.72469 15.6923 7.65104C15.7074 7.63081 15.7218 7.60992 15.7371 7.58984C15.7715 7.54484 15.8071 7.50065 15.8429 7.45673C15.884 7.40611 15.9256 7.35589 15.9684 7.30674C16.0059 7.26376 16.0442 7.22157 16.0829 7.17966C16.127 7.13185 16.1717 7.08458 16.2175 7.03824C16.2576 6.99753 16.2986 6.95749 16.3399 6.91786C16.3871 6.87273 16.4349 6.82827 16.4837 6.78461C16.5265 6.74631 16.5697 6.70841 16.6138 6.67119C16.6638 6.62887 16.7145 6.58749 16.766 6.54665C16.8113 6.51062 16.8571 6.475 16.9035 6.44018C16.9562 6.40068 17.0098 6.36225 17.064 6.32421C17.1116 6.29073 17.1595 6.25752 17.2082 6.22525C17.2637 6.18856 17.3202 6.15294 17.377 6.11785C17.4268 6.08705 17.4766 6.05625 17.5274 6.02666C17.5855 5.99278 17.6449 5.96023 17.7044 5.92796C17.7561 5.89984 17.8076 5.87172 17.8603 5.8448C17.9212 5.81373 17.9832 5.78441 18.0452 5.75508C18.0987 5.72977 18.1521 5.70406 18.2065 5.67995C18.27 5.65183 18.3347 5.62558 18.3994 5.5992C18.4543 5.5767 18.509 5.55381 18.5648 5.53265C18.6312 5.50747 18.6988 5.4843 18.7665 5.46087C18.8225 5.44145 18.8781 5.42123 18.9349 5.40302C19.0046 5.38065 19.0757 5.3607 19.1464 5.34021C19.2029 5.32387 19.2588 5.3066 19.3159 5.29147C19.3897 5.27192 19.4649 5.25504 19.5399 5.2375C19.5956 5.22451 19.6509 5.21032 19.7073 5.1984C19.7871 5.18166 19.8682 5.16773 19.949 5.15313C20.0021 5.14363 20.0546 5.13265 20.1083 5.12407C20.1988 5.10975 20.2908 5.0985 20.3827 5.08698C20.428 5.08136 20.4727 5.07399 20.5185 5.06904C20.6565 5.05404 20.796 5.04199 20.9368 5.03355C21.101 5.02364 21.2652 5.01868 21.429 5.01828C21.4677 5.01815 21.5062 5.02069 21.5449 5.02109C21.6698 5.02243 21.7946 5.02431 21.9188 5.03114C21.9683 5.03382 22.0174 5.03944 22.0668 5.04292C22.1796 5.05096 22.2925 5.05886 22.4048 5.07131C22.4604 5.07747 22.5155 5.08658 22.571 5.09381C22.6762 5.10747 22.7815 5.12086 22.8859 5.1384C22.9453 5.14831 23.004 5.16117 23.0629 5.17228C23.1627 5.19117 23.2625 5.20951 23.3613 5.23174C23.4231 5.24567 23.4841 5.26227 23.5454 5.27741C23.6403 5.30098 23.7352 5.32414 23.8293 5.35079C23.8929 5.36887 23.9556 5.38949 24.0187 5.40891C24.1091 5.43676 24.1997 5.46435 24.2891 5.49515C24.3538 5.51738 24.4174 5.54202 24.4814 5.56572C24.5677 5.59773 24.6542 5.62947 24.7394 5.66415C24.8047 5.69067 24.8689 5.71946 24.9335 5.74758C25.0158 5.78333 25.0981 5.81909 25.1792 5.85739C25.2444 5.88819 25.3086 5.921 25.373 5.95341C25.4516 5.99291 25.5302 6.03255 25.6075 6.07446C25.6721 6.10942 25.7356 6.14624 25.7994 6.1828C25.8745 6.22592 25.9494 6.26931 26.0231 6.31471C26.0867 6.35381 26.1493 6.39465 26.2118 6.4355C26.2833 6.4821 26.3545 6.5291 26.4246 6.57785C26.4867 6.6211 26.5478 6.66583 26.6089 6.71069C26.677 6.76077 26.7447 6.81139 26.8114 6.86349C26.8714 6.91049 26.9307 6.95883 26.9894 7.00744C27.0542 7.06114 27.1186 7.11538 27.1819 7.17095C27.2396 7.22171 27.2964 7.27353 27.3527 7.32589C27.4142 7.38294 27.4749 7.44079 27.5347 7.49985C27.5898 7.55421 27.6441 7.60939 27.6977 7.66536C27.7274 7.69643 27.7564 7.72844 27.7857 7.76004C27.7817 7.78656 27.7781 7.81294 27.774 7.83959C27.7656 7.89342 27.7566 7.94752 27.7477 8.00162C27.7354 8.07554 27.7228 8.14973 27.7094 8.22419C27.6996 8.27923 27.6893 8.33453 27.6789 8.38984C27.6647 8.46443 27.6501 8.53915 27.6349 8.61401C27.6237 8.66918 27.6124 8.72436 27.6007 8.77966C27.5846 8.856 27.5675 8.93246 27.5503 9.00906C27.538 9.06343 27.5259 9.1178 27.5131 9.1723C27.4947 9.25091 27.4752 9.32978 27.4557 9.40879C27.4425 9.46182 27.4297 9.51459 27.4161 9.56775C27.3949 9.65051 27.3725 9.73354 27.3499 9.81656C27.3365 9.86611 27.3236 9.91552 27.3098 9.96521C27.2842 10.0571 27.2572 10.1492 27.2301 10.2413C27.218 10.2826 27.2065 10.3238 27.1941 10.3651C27.154 10.4986 27.1125 10.6325 27.0694 10.7667C27.0679 10.7714 27.0666 10.7761 27.0653 10.7809C26.997 10.9926 26.9251 11.204 26.8501 11.4148C26.8278 11.4775 26.8034 11.5399 26.7805 11.6024C26.726 11.7514 26.6714 11.9004 26.6137 12.0486C26.5811 12.133 26.5462 12.2168 26.5126 12.3009C26.4622 12.4269 26.4119 12.553 26.3593 12.6784C26.3211 12.7699 26.2812 12.861 26.2418 12.9523C26.1911 13.0699 26.1406 13.1873 26.0882 13.3044C26.046 13.3986 26.0027 13.4926 25.9594 13.5866C25.9074 13.6998 25.8553 13.813 25.8019 13.9256C25.7567 14.0211 25.7107 14.1161 25.6644 14.2112C25.6107 14.3217 25.5567 14.4319 25.5018 14.5419C25.4541 14.6372 25.406 14.7324 25.3576 14.8274C25.3021 14.9361 25.246 15.0444 25.1895 15.1526C25.1399 15.2473 25.0901 15.342 25.0398 15.4363C24.9823 15.5439 24.9242 15.6512 24.8659 15.7583C24.8152 15.8513 24.7645 15.9441 24.7133 16.0365C24.6532 16.1445 24.5926 16.2519 24.5319 16.3593C24.4809 16.4495 24.4301 16.5396 24.3786 16.6292C24.3156 16.7387 24.252 16.8475 24.1882 16.9561C24.1379 17.0419 24.0881 17.128 24.0375 17.2133C23.9692 17.3285 23.9002 17.4424 23.8314 17.5567C23.7847 17.6341 23.7383 17.7119 23.6915 17.7887C23.6053 17.9299 23.5187 18.0697 23.432 18.2091C23.4022 18.2573 23.3724 18.3062 23.3425 18.3541C23.2258 18.5407 23.109 18.7257 22.9918 18.9091C22.9554 18.9662 22.9189 19.0222 22.8823 19.0791C22.8001 19.2072 22.7178 19.3352 22.6357 19.4616C22.5933 19.5268 22.551 19.5911 22.5086 19.6559C22.4479 19.7488 22.3872 19.8414 22.3265 19.9334C22.3211 19.9255 22.3155 19.9173 22.3102 19.9093C22.2479 19.8162 22.1876 19.725 22.1261 19.6327C22.0361 19.4976 21.9458 19.3621 21.8575 19.2286C21.7928 19.1307 21.7297 19.0344 21.6659 18.9373C21.5832 18.8114 21.5002 18.6854 21.419 18.561C21.3544 18.4621 21.2913 18.3646 21.2278 18.2664C21.1503 18.1468 21.0726 18.0271 20.9965 17.909C20.9324 17.8092 20.8695 17.7108 20.8063 17.6121C20.7332 17.4977 20.6601 17.3834 20.5884 17.2704C20.5262 17.1723 20.4652 17.0755 20.4041 16.9786C20.3337 16.8667 20.2634 16.7552 20.1944 16.6447C20.1347 16.549 20.0757 16.454 20.0169 16.3593C19.9494 16.2505 19.8822 16.1419 19.8161 16.0343C19.7585 15.9406 19.7017 15.8475 19.6451 15.7549C19.5804 15.6487 19.5163 15.5431 19.453 15.4384C19.3977 15.3467 19.3427 15.2555 19.2884 15.1648C19.2265 15.0616 19.1656 14.9591 19.1052 14.8572C19.0522 14.7679 18.9995 14.679 18.9478 14.5907C18.888 14.4892 18.8296 14.3887 18.7713 14.2885C18.7214 14.2027 18.6716 14.1169 18.6228 14.0322C18.5653 13.9321 18.509 13.8335 18.453 13.7349C18.4059 13.6523 18.3587 13.5694 18.3128 13.4877C18.2574 13.3894 18.2037 13.2926 18.1499 13.1959C18.1059 13.1167 18.0615 13.0371 18.0187 12.959C17.9648 12.8608 17.9128 12.7645 17.8605 12.6681C17.8203 12.5939 17.7795 12.5191 17.7403 12.4458C17.687 12.3463 17.636 12.249 17.5846 12.1514C17.5489 12.0835 17.5122 12.0146 17.4774 11.9475C17.4223 11.8416 17.3697 11.7382 17.3169 11.6344C17.2882 11.5781 17.2583 11.5206 17.2302 11.4649C17.1507 11.307 17.0734 11.1514 16.9991 10.9986C16.9247 10.8456 16.8529 10.6952 16.784 10.5477C16.7097 10.3888 16.6394 10.2338 16.5715 10.0816C16.199 9.24408 15.9243 8.50661 15.7531 7.88177ZM15.4759 5.54537C15.4771 5.5305 15.4793 5.51631 15.4806 5.50158C15.4889 5.41212 15.5002 5.32481 15.5137 5.23911C15.5178 5.21313 15.5219 5.18701 15.5265 5.1613C15.5437 5.06542 15.5632 4.97114 15.5872 4.88008C15.59 4.86964 15.5933 4.85973 15.5962 4.84942C15.6187 4.76706 15.6444 4.68711 15.6724 4.60877C15.6807 4.58574 15.689 4.56271 15.6976 4.54007C15.7304 4.45477 15.7655 4.37094 15.805 4.29059C15.8077 4.28537 15.8106 4.28042 15.8133 4.27506C15.8512 4.19913 15.893 4.12601 15.9371 4.0545C15.9493 4.03468 15.9616 4.015 15.9744 3.99558C16.0231 3.92099 16.0738 3.84787 16.1294 3.77824C17.35 2.2492 20.0764 2.0723 22.0209 2.0723C22.1405 2.0723 22.2588 2.0723 22.3753 2.07391C22.3758 2.07391 22.3765 2.07391 22.377 2.07391C22.379 2.07391 22.3812 2.07391 22.3832 2.07391C22.3834 2.07391 22.3836 2.07391 22.3838 2.07391C22.3866 2.07391 22.3893 2.07391 22.3921 2.07391C22.3933 2.07391 22.3948 2.07404 22.396 2.07404C22.8471 2.08449 23.6443 2.13042 24.4969 2.30665C24.505 2.30839 24.5133 2.3104 24.5216 2.31201C24.5912 2.32661 24.6613 2.34174 24.7314 2.35821C24.7377 2.35968 24.7441 2.36143 24.7505 2.3629C24.8227 2.37991 24.895 2.39758 24.9673 2.4166C24.9751 2.41861 24.9829 2.42102 24.9907 2.42316C25.0616 2.44204 25.1324 2.46146 25.2031 2.48235C25.2166 2.48637 25.2299 2.49092 25.2434 2.49494C25.3083 2.51449 25.3733 2.53444 25.4377 2.55587C25.4527 2.56082 25.4672 2.56645 25.482 2.57154C25.5448 2.59283 25.6077 2.61452 25.6698 2.63769C25.6887 2.64465 25.7069 2.65255 25.7257 2.65979C25.7835 2.68202 25.8412 2.70425 25.8982 2.72808C25.9198 2.73719 25.9408 2.74737 25.9622 2.75661C26.0156 2.77977 26.0691 2.80281 26.1215 2.82771C26.1435 2.83816 26.1646 2.84968 26.1863 2.86039C26.2373 2.88543 26.2884 2.91021 26.3381 2.93685C26.3642 2.95078 26.3891 2.96605 26.4147 2.98051C26.4591 3.00528 26.5038 3.02966 26.547 3.0559C26.573 3.07171 26.5977 3.08898 26.6233 3.10532C26.6648 3.1317 26.7067 3.15768 26.747 3.1854C26.7706 3.20174 26.7927 3.21955 26.8158 3.23629C26.8564 3.26575 26.8975 3.29467 26.9364 3.32561C26.96 3.34436 26.982 3.36471 27.005 3.38399C27.0417 3.41466 27.0789 3.44479 27.114 3.47693C27.1413 3.50211 27.1665 3.52916 27.1929 3.55514C27.2216 3.58339 27.2512 3.61071 27.2786 3.64004C27.3043 3.66762 27.3275 3.69722 27.3521 3.72588C27.3777 3.75574 27.4045 3.78453 27.4288 3.81546C27.4521 3.84519 27.4728 3.87693 27.4948 3.9076C27.5176 3.93947 27.5419 3.97027 27.5632 4.00321C27.5842 4.03549 27.6023 4.07004 27.6218 4.10351C27.6414 4.13699 27.6625 4.1694 27.6806 4.20408C27.6981 4.23756 27.7125 4.27318 27.7285 4.30773C27.7456 4.34456 27.7642 4.38032 27.7796 4.41835C27.7932 4.45209 27.8036 4.48798 27.8159 4.52267C27.8304 4.56378 27.8464 4.60395 27.859 4.6464C27.8712 4.68805 27.8798 4.73224 27.8899 4.77523C27.8988 4.81313 27.9098 4.84968 27.9171 4.88865C27.9281 4.9461 27.9347 5.00636 27.9419 5.06622C27.9451 5.09301 27.9505 5.11845 27.953 5.14564C27.9611 5.23375 27.9653 5.32454 27.9653 5.41775C27.9653 5.58447 27.9622 5.7524 27.9565 5.92113C27.9543 5.98434 27.9501 6.04822 27.9471 6.11169C27.9426 6.20905 27.9385 6.3064 27.9321 6.40429C27.9223 6.39559 27.912 6.38769 27.9023 6.37898C27.8108 6.29823 27.718 6.21922 27.6235 6.14222C27.6099 6.13111 27.5966 6.11973 27.583 6.10875C27.4815 6.02679 27.3782 5.94738 27.2735 5.86971C27.253 5.85444 27.2323 5.83944 27.2116 5.82431C27.1044 5.74597 26.9959 5.66924 26.8855 5.59559C26.8841 5.59465 26.8827 5.59385 26.8813 5.59291C26.7719 5.51993 26.6606 5.44975 26.5484 5.38132C26.5277 5.36874 26.507 5.35601 26.4863 5.34343C26.375 5.2766 26.2624 5.21192 26.1483 5.14965C26.13 5.13961 26.1115 5.12997 26.0931 5.12006C25.9852 5.06194 25.8762 5.00569 25.7661 4.95173C25.7528 4.94516 25.7396 4.93834 25.7263 4.93177C25.6093 4.87499 25.4908 4.82103 25.3717 4.76893C25.347 4.75809 25.3222 4.74751 25.2974 4.73693C25.1771 4.68551 25.0561 4.63596 24.9338 4.58936C24.9248 4.58587 24.9158 4.58279 24.9067 4.57945C24.7908 4.53566 24.6739 4.49454 24.5563 4.45531C24.5315 4.44701 24.5068 4.43843 24.4818 4.4304C24.3606 4.39089 24.2385 4.35367 24.1158 4.31885C24.0905 4.31162 24.065 4.30492 24.0396 4.29796C23.9252 4.26649 23.8102 4.23689 23.6944 4.20957C23.6785 4.20582 23.6627 4.20167 23.6468 4.19792C23.5221 4.16913 23.3967 4.14342 23.2708 4.11945C23.2402 4.11369 23.2097 4.10793 23.179 4.10244C23.0533 4.07981 22.9273 4.05892 22.8007 4.04124C22.782 4.03857 22.7633 4.03656 22.7447 4.03415C22.6297 4.01875 22.5143 4.00549 22.3986 3.99424C22.37 3.99143 22.3414 3.98835 22.3127 3.9858C22.1867 3.97456 22.0602 3.96585 21.9335 3.95956C21.9039 3.95808 21.8743 3.95715 21.8447 3.95594C21.7239 3.95099 21.6029 3.94791 21.4818 3.9475C21.4716 3.9475 21.4613 3.94684 21.451 3.94684C21.447 3.94684 21.4431 3.94697 21.4391 3.94697C21.3883 3.94697 21.3375 3.94844 21.2865 3.94925C21.2432 3.94991 21.1998 3.95005 21.1563 3.95139C21.0619 3.9542 20.9673 3.95849 20.8727 3.96411C20.7215 3.97322 20.5717 3.98661 20.4229 4.00241C20.3759 4.0075 20.3293 4.01393 20.2825 4.01968C20.1802 4.03214 20.0784 4.04566 19.9775 4.06133C19.9249 4.0695 19.8726 4.07834 19.8204 4.08731C19.7237 4.10405 19.6279 4.12226 19.5325 4.14181C19.4827 4.15213 19.4328 4.16204 19.3833 4.17315C19.2766 4.19699 19.1712 4.2231 19.0663 4.25055C19.0315 4.25966 18.996 4.26783 18.9614 4.27734C18.8226 4.3155 18.6855 4.35661 18.5502 4.40107C18.5222 4.41031 18.4947 4.42076 18.4669 4.43027C18.3603 4.46656 18.2546 4.50432 18.1505 4.54436C18.106 4.5615 18.0624 4.57958 18.0184 4.59739C17.9306 4.63288 17.8437 4.6697 17.7577 4.708C17.7123 4.72822 17.6672 4.74871 17.6222 4.76974C17.5356 4.81018 17.4504 4.8525 17.3658 4.89575C17.3264 4.91597 17.2865 4.93552 17.2475 4.95641C17.1383 5.01467 17.0309 5.0752 16.9254 5.13814C16.9135 5.14523 16.9011 5.15166 16.8892 5.15889C16.7721 5.2296 16.6577 5.30365 16.5453 5.37998C16.5125 5.40222 16.4809 5.42578 16.4485 5.44855C16.3695 5.50399 16.2916 5.5605 16.2152 5.61875C16.1769 5.64795 16.1394 5.67781 16.1018 5.70767C16.0318 5.76338 15.9629 5.82016 15.8952 5.87815C15.859 5.90921 15.8227 5.94015 15.7871 5.97175C15.7151 6.03603 15.6448 6.10218 15.5756 6.16914C15.5482 6.19566 15.5201 6.22123 15.4931 6.24815C15.4858 6.25552 15.4779 6.26235 15.4706 6.26971C15.4698 6.25619 15.4695 6.2432 15.4689 6.2298C15.4637 6.13232 15.4614 6.03683 15.4612 5.94283C15.4612 5.91484 15.4611 5.88672 15.4615 5.859C15.4632 5.7524 15.4675 5.64741 15.4759 5.54537ZM28.2622 14.7636C28.2761 14.8022 28.2902 14.8402 28.3042 14.8787C28.353 15.0128 28.4021 15.1461 28.4515 15.2783C28.4696 15.327 28.4879 15.3757 28.5062 15.4241C28.5682 15.5888 28.6306 15.7526 28.6935 15.9143C29.6063 18.2655 30.5851 20.2463 31.6753 21.9457C31.748 22.059 31.8213 22.1711 31.8949 22.2818C31.8717 22.3231 31.8468 22.3642 31.8202 22.4052C31.8114 22.4188 31.8014 22.4322 31.7923 22.4459C31.7739 22.4731 31.7556 22.5004 31.7359 22.5274C31.724 22.5438 31.711 22.5598 31.6985 22.576C31.68 22.6003 31.6617 22.6245 31.642 22.6486C31.628 22.6658 31.6129 22.6829 31.5984 22.7C31.5788 22.7231 31.5594 22.7461 31.5387 22.769C31.5231 22.7864 31.5066 22.8038 31.4903 22.8212C31.4694 22.8436 31.4486 22.8661 31.4267 22.8885C31.4095 22.9061 31.3913 22.9237 31.3736 22.9414C31.3515 22.9632 31.3293 22.985 31.3064 23.0068C31.2876 23.0247 31.2681 23.0423 31.2488 23.06C31.2253 23.0816 31.2017 23.103 31.1772 23.1244C31.1571 23.1421 31.1364 23.1598 31.1159 23.1774C31.0911 23.1986 31.0661 23.2198 31.0407 23.2408C31.0192 23.2585 30.9974 23.2761 30.9754 23.2938C30.9491 23.3148 30.9227 23.3359 30.8958 23.3568C30.8732 23.3743 30.8504 23.3917 30.8275 23.4091C30.8 23.4299 30.7723 23.4506 30.7441 23.4714C30.7204 23.4888 30.6965 23.5062 30.6722 23.5236C30.6433 23.5444 30.6141 23.565 30.5844 23.5858C30.56 23.6028 30.5355 23.6199 30.5107 23.6369C30.4803 23.6577 30.4495 23.6784 30.4184 23.699C30.3932 23.7159 30.3678 23.7327 30.3421 23.7495C30.3103 23.7703 30.2782 23.7909 30.2458 23.8115C30.2196 23.8281 30.1936 23.8449 30.1671 23.8615C30.134 23.8821 30.1004 23.9027 30.0666 23.9233C30.0401 23.9397 30.0135 23.9559 29.9866 23.9721C29.9515 23.9933 29.9157 24.0143 29.88 24.0353C29.8535 24.051 29.8272 24.0666 29.8002 24.0822C29.7633 24.1036 29.7257 24.1249 29.688 24.1463C29.6615 24.1614 29.6352 24.1764 29.6084 24.1916C29.5693 24.2135 29.5294 24.2354 29.4897 24.2572C29.4635 24.2715 29.4377 24.286 29.4113 24.3003C29.3678 24.3239 29.3235 24.3475 29.2793 24.3709C29.2561 24.3832 29.2333 24.3957 29.21 24.408C29.1429 24.4433 29.0751 24.4786 29.0067 24.5136C29.0059 24.514 29.0052 24.5144 29.0044 24.5148C28.9352 24.5503 28.8653 24.5857 28.7947 24.6209C28.7679 24.6343 28.7406 24.6476 28.7136 24.6609C28.6695 24.6828 28.6256 24.7046 28.581 24.7263C28.549 24.742 28.5165 24.7575 28.4842 24.773C28.4442 24.7923 28.4043 24.8117 28.3639 24.831C28.3293 24.8475 28.2944 24.864 28.2595 24.8803C28.2209 24.8985 28.1823 24.9169 28.1434 24.9351C28.1072 24.9519 28.0707 24.9688 28.0342 24.9857C27.9962 25.0032 27.9583 25.0209 27.9202 25.0385C27.8828 25.0556 27.8452 25.0726 27.8077 25.0897C27.77 25.107 27.7321 25.1242 27.6941 25.1413C27.6557 25.1586 27.6171 25.1758 27.5786 25.1931C27.5411 25.2099 27.5036 25.2266 27.4661 25.2433C27.4265 25.2609 27.3869 25.2784 27.3471 25.296C27.3107 25.312 27.2742 25.3281 27.2376 25.3442C27.196 25.3624 27.1544 25.3806 27.1126 25.3988C27.0777 25.4141 27.0427 25.4292 27.0076 25.4445C26.9644 25.4632 26.9212 25.4818 26.8779 25.5005C26.844 25.5151 26.81 25.5297 26.7759 25.5442C26.7313 25.5634 26.6867 25.5825 26.6419 25.6016C26.6099 25.6152 26.578 25.6287 26.546 25.6424C26.4979 25.6628 26.4501 25.6831 26.4019 25.7035C26.3915 25.7079 26.3812 25.7122 26.3708 25.7166C26.3537 25.6932 26.3367 25.6697 26.3193 25.6459C26.2881 25.603 26.2569 25.5602 26.2249 25.5161C26.1915 25.4703 26.1573 25.4231 26.1231 25.3759C26.0951 25.3373 26.0676 25.2996 26.0391 25.2601C25.9109 25.083 25.7768 24.8974 25.6377 24.7038C25.6194 24.6784 25.6006 24.6521 25.5822 24.6265C25.5304 24.5545 25.4783 24.4816 25.4252 24.4074C25.4007 24.373 25.3756 24.3381 25.3508 24.3033C25.301 24.2336 25.2509 24.1635 25.2 24.0921C25.1747 24.0566 25.1492 24.0207 25.1236 23.9848C25.072 23.9122 25.0198 23.8387 24.9671 23.7645C24.9419 23.7289 24.9167 23.6934 24.8912 23.6574C24.8335 23.5758 24.775 23.4932 24.7162 23.4098C24.6955 23.3805 24.6751 23.3517 24.6543 23.3221C24.5816 23.2188 24.5081 23.1142 24.4338 23.0084C24.4261 22.9975 24.4186 22.9868 24.4109 22.9758C24.244 22.7377 24.0733 22.4927 23.8996 22.2425C23.8797 22.2138 23.8596 22.1846 23.8396 22.1557C23.7734 22.0602 23.707 21.9641 23.64 21.867C23.6163 21.8324 23.5922 21.7976 23.5684 21.7629C23.503 21.668 23.4374 21.5725 23.3715 21.4762C23.3484 21.4426 23.3255 21.409 23.3022 21.3752C23.2327 21.2737 23.163 21.1714 23.0929 21.0684C23.0733 21.0395 23.0537 21.0108 23.034 20.9818C23.0138 20.9521 22.9934 20.9219 22.9732 20.8921C23.0004 20.8512 23.0277 20.8094 23.0549 20.7683C23.1056 20.6919 23.1563 20.6154 23.2071 20.5383C23.2753 20.4348 23.3436 20.3304 23.412 20.2258C23.459 20.1541 23.5058 20.0827 23.5529 20.0102C23.6425 19.8722 23.7322 19.7329 23.8219 19.5928C23.8476 19.5529 23.8732 19.5136 23.8988 19.4735C24.011 19.2977 24.123 19.12 24.2349 18.9411C24.2751 18.8769 24.315 18.812 24.355 18.7474C24.4299 18.6265 24.5049 18.5053 24.5795 18.3832C24.6244 18.3097 24.6691 18.2357 24.7138 18.1618C24.7848 18.0445 24.8553 17.9267 24.9258 17.8083C24.9699 17.7341 25.0139 17.6599 25.0578 17.5853C25.1327 17.458 25.2068 17.33 25.2809 17.2014C25.3185 17.1362 25.3562 17.0714 25.3936 17.0057C25.503 16.8138 25.6114 16.621 25.7185 16.4266C25.732 16.4019 25.7452 16.377 25.7587 16.3524C25.8526 16.181 25.9456 16.0088 26.0373 15.8356C26.0731 15.7681 26.108 15.7002 26.1435 15.6325C26.2129 15.4997 26.2816 15.3668 26.3495 15.2331C26.3878 15.1576 26.4258 15.0818 26.4635 15.006C26.5288 14.8752 26.5931 14.7439 26.6567 14.6122C26.6923 14.5384 26.7282 14.4646 26.7633 14.3904C26.8333 14.2427 26.9017 14.0944 26.9695 13.9458C26.9955 13.8886 27.0223 13.8318 27.0479 13.7747C27.14 13.5694 27.2299 13.3633 27.317 13.1564C27.3338 13.1166 27.3495 13.0764 27.3661 13.0367C27.4234 12.8986 27.4809 12.7607 27.536 12.6219C27.5676 12.7212 27.5994 12.8189 27.6311 12.9169C27.6442 12.9574 27.6573 12.9986 27.6705 13.0389C27.728 13.2152 27.7857 13.3891 27.8436 13.5615C27.8615 13.6148 27.8795 13.6675 27.8975 13.7206C27.9425 13.8531 27.9877 13.9848 28.0329 14.1152C28.05 14.1646 28.0672 14.2143 28.0844 14.2634C28.1432 14.4318 28.2026 14.5986 28.2622 14.7636ZM31.0343 5.15782C32.7026 7.57604 33.9532 13.5854 34.2992 15.3816C34.1162 15.4135 33.931 15.44 33.7439 15.4622C33.6778 15.47 33.6103 15.4744 33.5438 15.4811C33.4215 15.4933 33.2994 15.506 33.1752 15.5143C33.0953 15.5196 33.0135 15.5213 32.9328 15.5249C32.8197 15.53 32.7069 15.5358 32.5922 15.5375C32.5053 15.5388 32.4167 15.5368 32.3288 15.5364C32.2177 15.5358 32.1069 15.5358 31.9942 15.532C31.9024 15.5291 31.809 15.523 31.7162 15.5181C31.6046 15.5122 31.4934 15.5064 31.3803 15.4976C31.2846 15.4901 31.1874 15.4801 31.0905 15.4706C30.9774 15.4594 30.8643 15.4483 30.7496 15.4344C30.6507 15.4225 30.5504 15.4081 30.4503 15.3941C30.3345 15.3779 30.2186 15.3611 30.101 15.3421C29.9995 15.3257 29.8968 15.3073 29.794 15.2888C29.7238 15.2762 29.6528 15.2624 29.5821 15.2488C29.5648 15.2034 29.5473 15.1583 29.5301 15.1126C29.4996 15.0321 29.4693 14.9514 29.439 14.8701C29.4027 14.7727 29.3666 14.6744 29.3306 14.5759C29.3017 14.497 29.2729 14.4181 29.2442 14.3386C29.2065 14.2335 29.1689 14.1273 29.1313 14.0208C29.1048 13.9458 29.0783 13.8712 29.0519 13.7954C29.0108 13.6772 28.9699 13.5573 28.929 13.4372C28.9064 13.3706 28.8837 13.3049 28.861 13.2378C28.8098 13.0854 28.7587 12.9307 28.7079 12.7753C28.696 12.7388 28.6839 12.7032 28.672 12.6667C28.6085 12.4714 28.5453 12.2736 28.4822 12.0731C28.4707 12.0366 28.4592 11.999 28.4478 11.9621C28.3964 11.7981 28.3452 11.633 28.2941 11.4653C28.2758 11.4053 28.2575 11.344 28.2393 11.2835C28.2046 11.1687 28.17 11.053 28.1353 10.9365C28.1503 10.8891 28.1639 10.8418 28.1784 10.7944C28.201 10.7209 28.2235 10.6474 28.2451 10.5741C28.2657 10.5045 28.2853 10.4351 28.305 10.3656C28.3256 10.2936 28.3461 10.2215 28.3657 10.1497C28.3852 10.0786 28.4035 10.0078 28.422 9.93695C28.4403 9.86705 28.459 9.79701 28.4764 9.72724C28.4947 9.65426 28.5119 9.58168 28.5293 9.50883C28.5454 9.4416 28.5619 9.37424 28.5773 9.30715C28.5946 9.23149 28.6105 9.1561 28.6269 9.0807C28.6408 9.01696 28.6551 8.95295 28.6683 8.88934C28.6845 8.8102 28.6993 8.73172 28.7145 8.65298C28.726 8.59339 28.7382 8.53366 28.7491 8.47434C28.765 8.38716 28.7792 8.30065 28.7938 8.21401C28.8022 8.16366 28.8115 8.11304 28.8195 8.06282C28.8391 7.93949 28.857 7.81696 28.8739 7.69469C28.8757 7.6817 28.8779 7.66844 28.8797 7.65545C28.9813 6.90366 29.0327 6.15066 29.0327 5.41761C29.0327 5.30794 29.0273 5.20201 29.0199 5.09783C29.0181 5.07332 29.0163 5.04895 29.014 5.02471C29.0048 4.92307 28.9931 4.82317 28.9769 4.72648C28.9753 4.71698 28.9732 4.70774 28.9715 4.69823C28.9559 4.60891 28.9368 4.52213 28.9156 4.43696C28.9104 4.41607 28.9053 4.39505 28.8997 4.37442C28.8754 4.2843 28.8485 4.19632 28.8181 4.11101C28.8133 4.09762 28.8078 4.08463 28.8029 4.07138C28.7747 3.99558 28.7442 3.92166 28.7115 3.84948C28.7039 3.83261 28.6965 3.81547 28.6887 3.79886C28.651 3.71945 28.6109 3.64205 28.5679 3.56705C28.5595 3.55246 28.5506 3.53826 28.5421 3.52367C28.5031 3.45778 28.4622 3.3935 28.4192 3.3311C28.4105 3.31838 28.4021 3.30525 28.3932 3.29266C28.344 3.22289 28.2922 3.15554 28.2385 3.08992C28.2267 3.07559 28.2146 3.06166 28.2026 3.0476C28.153 2.98895 28.1019 2.9319 28.0488 2.87659C28.0409 2.86829 28.0333 2.85972 28.0253 2.85155C27.9659 2.79075 27.9042 2.73223 27.8409 2.67519C27.8265 2.6622 27.812 2.64947 27.7973 2.63675C27.7777 2.61961 27.7585 2.6018 27.7386 2.58493C29.2078 3.02658 30.1061 3.81279 31.0343 5.15782ZM12.6577 5.76539C12.6665 5.75762 12.6752 5.74972 12.6833 5.74142C13.5659 4.86575 14.2718 4.199 14.911 3.69119C14.9023 3.7074 14.8946 3.72427 14.8862 3.74061C14.8718 3.76833 14.8578 3.79632 14.844 3.82444C14.8207 3.87198 14.7983 3.92019 14.7767 3.96893C14.7643 3.99679 14.7519 4.02464 14.7401 4.05276C14.7177 4.10673 14.6968 4.16163 14.6765 4.21694C14.6678 4.24051 14.6586 4.26368 14.6504 4.28738C14.6227 4.36706 14.597 4.44794 14.5738 4.53043C14.5719 4.53686 14.5706 4.54369 14.5687 4.55012C14.5478 4.62618 14.5287 4.70345 14.5114 4.78179C14.5056 4.8079 14.5007 4.83469 14.4953 4.8612C14.4831 4.92146 14.4717 4.98213 14.4617 5.04359C14.4568 5.07372 14.4524 5.10426 14.448 5.13465C14.4393 5.19532 14.4316 5.25652 14.4249 5.31838C14.4217 5.34825 14.4184 5.37811 14.4157 5.40824C14.4094 5.47694 14.4048 5.54657 14.4012 5.61674C14.4 5.64018 14.3981 5.66321 14.3972 5.68678C14.3894 5.87707 14.3909 6.07272 14.4013 6.27373C14.4026 6.30011 14.4049 6.32689 14.4065 6.35327C14.4112 6.42733 14.4168 6.50192 14.424 6.57731C14.427 6.61066 14.4308 6.64427 14.4344 6.67775C14.442 6.74886 14.4508 6.8205 14.4605 6.89281C14.4652 6.92763 14.4699 6.96231 14.4751 6.9974C14.4863 7.07333 14.4991 7.15006 14.5127 7.22733C14.5182 7.25853 14.523 7.28933 14.5288 7.32067C14.5488 7.42807 14.5706 7.5364 14.595 7.64635C14.5953 7.64742 14.5954 7.64849 14.5957 7.64956C14.5958 7.6501 14.5959 7.6505 14.5961 7.6509C14.6198 7.76085 14.6489 7.87815 14.6806 8.00028C14.6949 8.05519 14.7084 8.10875 14.7245 8.16687C14.7259 8.17196 14.7277 8.17745 14.7291 8.18254C14.7581 8.28793 14.7897 8.396 14.8239 8.50688C14.8358 8.54558 14.8498 8.58616 14.8623 8.62553C14.8877 8.70467 14.9127 8.78355 14.9406 8.86524C14.9569 8.91291 14.975 8.96246 14.9921 9.01107C15.0188 9.087 15.0453 9.16252 15.0741 9.2406C15.094 9.2943 15.1156 9.34987 15.1364 9.40464C15.1652 9.48017 15.1938 9.55556 15.2245 9.63297C15.2477 9.69135 15.2724 9.75148 15.2965 9.81094C15.3276 9.8874 15.3587 9.96373 15.3913 10.0418C15.4176 10.1045 15.4454 10.1684 15.4727 10.2321C15.5062 10.3099 15.5398 10.3877 15.5749 10.4671C15.6042 10.5334 15.6347 10.6009 15.6652 10.6684C15.701 10.7477 15.7371 10.8272 15.7746 10.908C15.8071 10.9781 15.8405 11.0494 15.8742 11.1208C15.8954 11.1656 15.9152 11.2091 15.9368 11.2545C15.9069 11.3303 15.8693 11.4263 15.8259 11.5372C15.8145 11.5667 15.8025 11.5974 15.7902 11.6291C15.7865 11.6386 15.7831 11.6473 15.7793 11.6569C15.7607 11.7049 15.7408 11.7558 15.7204 11.8085C15.7162 11.8197 15.7119 11.8308 15.7075 11.842C15.6628 11.9577 15.6141 12.0841 15.5618 12.2206C15.5613 12.2218 15.5609 12.223 15.5604 12.2243C15.285 12.9439 14.9134 13.9354 14.5188 15.0478C14.4999 15.0519 14.4811 15.0561 14.4621 15.0602C14.4384 15.0655 14.4145 15.0707 14.3906 15.0758C14.3518 15.0842 14.3129 15.0925 14.2739 15.101C14.2494 15.1062 14.225 15.1114 14.2004 15.1166C14.1625 15.1247 14.1246 15.1326 14.0866 15.1406C14.0616 15.1458 14.0365 15.151 14.0113 15.1563C13.9723 15.1643 13.9334 15.1723 13.8944 15.1802C13.8699 15.1852 13.8455 15.1903 13.8209 15.1952C13.7829 15.203 13.7449 15.2105 13.7067 15.2181C13.6807 15.2233 13.6548 15.2286 13.6288 15.2337C13.5923 15.2409 13.5557 15.248 13.5192 15.2552C13.4918 15.2606 13.4643 15.2659 13.437 15.2713C13.4018 15.2781 13.3666 15.2848 13.3314 15.2915C13.3033 15.2969 13.2752 15.3022 13.2472 15.3076C13.2134 15.3139 13.1798 15.3202 13.1462 15.3265C13.1161 15.3321 13.0859 15.3377 13.0558 15.3432C13.0259 15.3487 12.996 15.354 12.9661 15.3595C12.9333 15.3654 12.9005 15.3715 12.8679 15.3773C12.8431 15.3818 12.8185 15.3861 12.7936 15.3905C12.5817 15.4281 12.3725 15.4635 12.1683 15.4961C12.1599 15.4975 12.1514 15.4989 12.1431 15.5003C12.0967 15.5076 12.0508 15.5149 12.005 15.522C11.9922 15.524 11.9791 15.526 11.9662 15.528C11.9227 15.5347 11.8796 15.5413 11.8367 15.5477C11.8219 15.5498 11.8071 15.5522 11.7924 15.5544C11.75 15.5607 11.7081 15.5668 11.6662 15.5729C11.6517 15.575 11.637 15.5771 11.6225 15.5792C11.5814 15.585 11.5407 15.5907 11.5001 15.5963C11.4851 15.5984 11.4699 15.6004 11.4549 15.6026C11.4164 15.6078 11.3783 15.6129 11.3406 15.6179C11.3238 15.6201 11.3068 15.6223 11.2902 15.6246C11.2531 15.6294 11.2165 15.6339 11.1803 15.6385C11.1641 15.6405 11.1478 15.6425 11.1318 15.6445C11.0957 15.6489 11.0601 15.6532 11.0246 15.6574C11.0088 15.6592 10.993 15.6611 10.9774 15.6629C10.9423 15.6669 10.9077 15.6708 10.8735 15.6745C10.8581 15.6762 10.8429 15.6779 10.8277 15.6795C10.7939 15.6831 10.7605 15.6866 10.7275 15.6899C10.7124 15.6914 10.6975 15.6929 10.6826 15.6943C10.6507 15.6974 10.6192 15.7005 10.5883 15.7033C10.5725 15.7048 10.5569 15.7061 10.5414 15.7074C10.5116 15.7101 10.4819 15.7125 10.4529 15.7149C10.4379 15.7162 10.4233 15.7172 10.4084 15.7184C10.3798 15.7206 10.3515 15.7227 10.3237 15.7246C10.3089 15.7257 10.2944 15.7265 10.2799 15.7274C10.2533 15.7291 10.2269 15.7307 10.2011 15.7321C10.1866 15.7329 10.1726 15.7336 10.1583 15.7342C10.1334 15.7354 10.1086 15.7366 10.0846 15.7376C10.0702 15.7381 10.0563 15.7385 10.0421 15.7389C10.0197 15.7396 9.99733 15.7404 9.97585 15.7408C9.96078 15.7411 9.94637 15.7412 9.93169 15.7413C9.91195 15.7416 9.89208 15.7419 9.87314 15.7419C9.85806 15.7419 9.84406 15.7416 9.82965 15.7415C9.81244 15.7413 9.79497 15.7412 9.77856 15.7408C9.76189 15.7404 9.74654 15.7396 9.73067 15.7389C9.7176 15.7384 9.70399 15.738 9.69145 15.7373C9.66384 15.7357 9.63743 15.7338 9.61262 15.7314C9.62382 15.6831 9.63556 15.6307 9.64757 15.5757C9.64863 15.5707 9.6497 15.5662 9.65077 15.5611C9.66197 15.509 9.67371 15.4534 9.68558 15.3958C9.68758 15.3862 9.68959 15.3769 9.69145 15.3672C9.70279 15.3117 9.7144 15.2537 9.72614 15.1938C9.72894 15.18 9.7316 15.1662 9.73441 15.1521C9.74588 15.0933 9.75762 15.0325 9.76949 14.97C9.77282 14.9527 9.77602 14.9353 9.77936 14.9178C9.79097 14.8564 9.80257 14.7936 9.81444 14.7289C9.81844 14.7072 9.82245 14.6853 9.82645 14.6633C9.83792 14.6 9.84966 14.5357 9.86153 14.4697C9.86593 14.445 9.87033 14.4197 9.87487 14.3947C9.88554 14.3348 9.89621 14.2742 9.90702 14.2123C9.91289 14.1791 9.91862 14.1453 9.92463 14.1116C9.9337 14.059 9.9429 14.0058 9.95224 13.952C9.96038 13.9048 9.96851 13.8572 9.97665 13.8091C9.98465 13.7621 9.99266 13.7147 10.0008 13.6669C10.0107 13.6085 10.0205 13.5494 10.0305 13.4898C10.0372 13.4498 10.0439 13.4095 10.0507 13.369C10.062 13.3009 10.0734 13.232 10.0848 13.1628C10.0906 13.128 10.0963 13.0933 10.102 13.0582C10.3942 11.2738 10.7072 9.15637 10.8864 7.92261C10.8876 7.91418 10.8889 7.90561 10.8901 7.89717C10.8952 7.86182 10.9001 7.82767 10.9051 7.79379C10.9087 7.76901 10.912 7.74531 10.9156 7.72134C10.9205 7.68719 10.9255 7.65291 10.9301 7.6205C10.9562 7.44052 10.978 7.28813 10.995 7.17015C11.5285 6.73346 12.0869 6.26168 12.6577 5.76539ZM9.77483 8.15054C9.73321 8.43591 9.69012 8.72771 9.64623 9.02299C9.64557 9.02781 9.6449 9.03263 9.6441 9.03745C9.63209 9.1182 9.61995 9.19935 9.60795 9.2805C9.60408 9.30608 9.60035 9.33152 9.59648 9.35724C9.58607 9.42714 9.57554 9.49718 9.565 9.56735C9.55886 9.60846 9.55272 9.64957 9.54645 9.69081C9.53632 9.75844 9.52605 9.8262 9.51591 9.89396C9.51031 9.93146 9.50457 9.96882 9.49897 10.0063C9.48883 10.0738 9.47856 10.1414 9.46829 10.2089C9.46122 10.2554 9.45415 10.3017 9.44708 10.3482C9.43801 10.4074 9.42907 10.4666 9.42 10.5258C9.41079 10.5863 9.40146 10.6466 9.39225 10.7068C9.37638 10.8103 9.36051 10.9135 9.34463 11.0163C9.33783 11.0601 9.33103 11.104 9.32436 11.1477C9.31569 11.2036 9.30701 11.2591 9.29834 11.3148C9.28994 11.3686 9.28167 11.4225 9.27326 11.476C9.26566 11.5244 9.25819 11.5723 9.25059 11.6204C9.24165 11.6778 9.23258 11.7351 9.22364 11.7922C9.21604 11.8407 9.2083 11.8889 9.2007 11.937C9.1919 11.9929 9.18296 12.0486 9.17429 12.1041C9.16669 12.1516 9.15922 12.1992 9.15161 12.2463C9.14268 12.3023 9.13374 12.3577 9.12493 12.413C9.11773 12.4578 9.11053 12.5026 9.10346 12.5468C9.09425 12.6041 9.08505 12.6606 9.07584 12.7171C9.06904 12.7593 9.06211 12.8019 9.0553 12.8436C9.0413 12.9294 9.02742 13.014 9.01368 13.0975C9.00835 13.1301 9.00301 13.162 8.99768 13.1941C8.98647 13.2619 8.97527 13.3295 8.96419 13.3956C8.95819 13.4314 8.95232 13.4663 8.94632 13.5016C8.93738 13.5552 8.92831 13.6086 8.91951 13.6608C8.9131 13.6987 8.90683 13.7357 8.90043 13.7728C8.89216 13.8214 8.88389 13.8695 8.87575 13.9167C8.86935 13.9536 8.86308 13.99 8.85681 14.026C8.84881 14.0721 8.84094 14.1172 8.83307 14.1619C8.82693 14.1968 8.8208 14.2316 8.81479 14.2655C8.80666 14.3111 8.79879 14.3554 8.79078 14.3995C8.78545 14.4294 8.77998 14.4596 8.77477 14.4887C8.76544 14.5398 8.75637 14.5891 8.74743 14.6379C8.74356 14.6584 8.73969 14.6799 8.73596 14.7C8.72355 14.7663 8.71155 14.8299 8.69981 14.8911C8.69594 14.9112 8.69234 14.9297 8.68847 14.9492C8.68047 14.9905 8.67246 15.0313 8.66473 15.07C8.66032 15.0922 8.65606 15.113 8.65165 15.1343C8.64485 15.1678 8.63818 15.2007 8.63164 15.2319C8.62724 15.2529 8.62297 15.273 8.6187 15.2931C8.61257 15.3222 8.60643 15.3503 8.60043 15.3772C8.5963 15.3957 8.59229 15.4136 8.58843 15.431C8.58256 15.4566 8.57695 15.4806 8.57149 15.5038C8.56788 15.519 8.56415 15.5346 8.56068 15.5488C8.55481 15.5723 8.54934 15.5934 8.54387 15.6138C8.54107 15.6244 8.53814 15.6361 8.53547 15.6458C8.52746 15.6745 8.51986 15.7003 8.51279 15.7218C8.42515 15.9868 8.47838 16.2531 8.65886 16.4527C8.66819 16.463 8.67793 16.4733 8.68794 16.4835C8.691 16.4866 8.69421 16.4896 8.69741 16.4927C8.70461 16.4998 8.71195 16.5069 8.71968 16.514C8.72369 16.5178 8.72782 16.5214 8.73196 16.525C8.73956 16.5318 8.74756 16.5385 8.7557 16.5452C8.75984 16.5486 8.76397 16.552 8.76824 16.5554C8.77838 16.5634 8.78918 16.5712 8.80025 16.5791C8.80292 16.581 8.80546 16.583 8.80812 16.5847C8.822 16.5942 8.83654 16.6035 8.85188 16.6126C8.85641 16.6153 8.86135 16.6178 8.86602 16.6205C8.87722 16.6269 8.88883 16.6332 8.90083 16.6394C8.90724 16.6426 8.9139 16.6459 8.92057 16.6491C8.93205 16.6546 8.94379 16.6601 8.95606 16.6653C8.96326 16.6684 8.97046 16.6716 8.97793 16.6747C8.99154 16.6803 9.00595 16.6857 9.02062 16.691C9.02742 16.6935 9.03383 16.696 9.0409 16.6984C9.06237 16.7058 9.08492 16.7129 9.10879 16.7197C9.11493 16.7214 9.12173 16.7231 9.128 16.7248C9.14641 16.7297 9.16535 16.7347 9.18523 16.7393C9.19536 16.7417 9.20617 16.7438 9.21671 16.7461C9.23391 16.7498 9.25166 16.7533 9.27007 16.7568C9.28194 16.7589 9.29408 16.7612 9.30648 16.7632C9.32582 16.7664 9.34597 16.7695 9.36638 16.7723C9.37851 16.7741 9.39025 16.7758 9.40279 16.7774C9.432 16.7812 9.46242 16.7845 9.4939 16.7876C9.5027 16.7884 9.51151 16.7892 9.52044 16.79C9.55219 16.7928 9.58514 16.7952 9.61942 16.7974C9.63409 16.7983 9.6497 16.799 9.66491 16.7997C9.69092 16.801 9.71733 16.8021 9.74468 16.803C9.76229 16.8035 9.78029 16.8041 9.79857 16.8045C9.82631 16.8051 9.85499 16.8054 9.88421 16.8055C9.89635 16.8057 9.90742 16.8061 9.91982 16.8061C9.92863 16.8061 9.93796 16.8059 9.9469 16.8058C9.95691 16.8058 9.96704 16.8057 9.97731 16.8055C10.0093 16.8053 10.0421 16.8047 10.0759 16.8039C10.0855 16.8037 10.095 16.8035 10.1048 16.8033C10.1914 16.8009 10.2833 16.797 10.3811 16.7912C10.393 16.7905 10.4052 16.7897 10.4174 16.7889C10.4554 16.7865 10.4942 16.784 10.534 16.781C10.5478 16.78 10.5618 16.779 10.576 16.778C10.622 16.7745 10.6692 16.7706 10.7176 16.7663C10.7241 16.7658 10.7302 16.7652 10.7366 16.7647C10.7922 16.7597 10.8496 16.7543 10.9085 16.7482C10.9215 16.7469 10.9351 16.7454 10.9482 16.7441C10.994 16.7393 11.041 16.7343 11.0889 16.7289C11.1073 16.7269 11.1258 16.7248 11.1445 16.7227C11.1927 16.7172 11.2419 16.7113 11.292 16.7051C11.3074 16.7032 11.3222 16.7015 11.3377 16.6995C11.4034 16.6913 11.4707 16.6826 11.5399 16.6732C11.5508 16.6718 11.5623 16.6702 11.5734 16.6687C11.6318 16.6608 11.6914 16.6525 11.7524 16.6438C11.7743 16.6407 11.7967 16.6373 11.8188 16.6341C11.8724 16.6264 11.9271 16.6182 11.9828 16.6098C12.005 16.6064 12.0272 16.6031 12.0498 16.5996C12.1268 16.5878 12.205 16.5756 12.2857 16.5626C12.372 16.5487 12.4579 16.5346 12.5433 16.5202C12.5633 16.5168 12.5829 16.5133 12.6029 16.51C12.6675 16.499 12.7319 16.488 12.7955 16.4769C12.8243 16.4718 12.8523 16.4669 12.881 16.4618C12.9352 16.4521 12.9893 16.4426 13.0427 16.433C13.076 16.427 13.1085 16.4209 13.1415 16.4149C13.1881 16.4063 13.2348 16.3979 13.2805 16.3893C13.319 16.3822 13.3562 16.3751 13.3939 16.368C13.4329 16.3607 13.4722 16.3533 13.5104 16.3461C13.5509 16.3383 13.59 16.3307 13.6295 16.323C13.6628 16.3166 13.6965 16.3101 13.729 16.3038C13.7733 16.2951 13.8158 16.2866 13.8587 16.2782C13.8835 16.2732 13.9087 16.2683 13.933 16.2635C13.981 16.2538 14.0269 16.2446 14.0725 16.2353C14.0844 16.2329 14.0973 16.2304 14.1089 16.228C14.0601 16.3707 14.0125 16.5116 13.9654 16.6514C13.9574 16.675 13.9498 16.6981 13.9419 16.7217C13.9041 16.8341 13.8669 16.9456 13.8304 17.0561C13.8178 17.0939 13.8056 17.1312 13.7932 17.1689C13.7618 17.2639 13.7307 17.3586 13.7002 17.4522C13.6862 17.4955 13.6722 17.5383 13.6583 17.5813C13.6298 17.6697 13.6015 17.7573 13.5737 17.8443C13.5601 17.8869 13.5465 17.9293 13.533 17.9715C13.5048 18.0606 13.477 18.1488 13.4495 18.2364C13.4377 18.2743 13.4257 18.3123 13.4139 18.35C13.3838 18.4469 13.3542 18.5425 13.3251 18.6376C13.3169 18.6643 13.3084 18.6913 13.3004 18.718C13.2257 18.9626 13.1545 19.2013 13.0868 19.4337C13.0784 19.4627 13.0704 19.4909 13.062 19.5196C13.0372 19.6052 13.0128 19.6903 12.9889 19.7743C12.9785 19.811 12.9685 19.847 12.9583 19.8833C12.9373 19.9579 12.9166 20.0321 12.8964 20.1053C12.8854 20.1448 12.8748 20.1841 12.8641 20.2233C12.8453 20.2921 12.8269 20.3604 12.8089 20.4281C12.7982 20.468 12.7875 20.5077 12.7771 20.5471C12.7594 20.6143 12.7422 20.6806 12.7251 20.7466C12.7155 20.7836 12.7059 20.8208 12.6965 20.8574C12.6784 20.9289 12.6608 20.9991 12.6434 21.0691C12.6361 21.0986 12.6285 21.1284 12.6214 21.1576C12.5973 21.256 12.5739 21.3533 12.5515 21.4485C11.9647 23.9483 11.9938 25.2361 12.6495 25.7548C12.6745 25.7746 12.7017 25.7943 12.7308 25.8138C12.7406 25.8204 12.7516 25.8269 12.7619 25.8335C12.7822 25.8465 12.8023 25.8595 12.8242 25.8723C12.8371 25.88 12.8514 25.8875 12.865 25.8951C12.886 25.9068 12.9068 25.9185 12.9292 25.9302C12.9447 25.9382 12.9612 25.9461 12.9772 25.9542C12.9995 25.9653 13.0216 25.9763 13.0451 25.9872C13.0627 25.9954 13.0811 26.0036 13.0993 26.0117C13.1231 26.0225 13.1471 26.0332 13.1722 26.0437C13.1916 26.0519 13.2116 26.0601 13.2317 26.0683C13.2573 26.0787 13.2831 26.0891 13.3097 26.0995C13.3307 26.1076 13.3522 26.1157 13.3736 26.1238C13.4013 26.1341 13.4291 26.1444 13.4578 26.1548C13.4801 26.1628 13.5025 26.1707 13.5254 26.1786C13.5549 26.1888 13.5851 26.1991 13.6156 26.2093C13.6392 26.2172 13.6631 26.2251 13.6873 26.2328C13.7187 26.243 13.7507 26.2531 13.7832 26.2631C13.8077 26.2707 13.8322 26.2784 13.8575 26.286C13.8911 26.2962 13.9255 26.3062 13.9602 26.3164C13.9858 26.3239 14.0113 26.3314 14.0373 26.3388C14.0733 26.3489 14.1101 26.3591 14.1471 26.3693C14.1728 26.3764 14.1983 26.3835 14.2244 26.3905C14.2648 26.4013 14.3063 26.412 14.3477 26.4227C14.3717 26.429 14.3953 26.4352 14.4197 26.4415C14.4661 26.4533 14.5136 26.4649 14.5611 26.4766C14.5821 26.4816 14.6025 26.4869 14.6237 26.492C14.7624 26.5254 14.9059 26.5582 15.0541 26.5908C15.0735 26.5949 15.0933 26.5992 15.1127 26.6034C15.1679 26.6153 15.2234 26.6273 15.2798 26.6391C15.3052 26.6445 15.3313 26.6497 15.3569 26.6551C15.4082 26.6656 15.4595 26.6762 15.5117 26.6867C15.5408 26.6926 15.5704 26.6983 15.5996 26.7041C15.6492 26.7139 15.6988 26.7236 15.7492 26.7334C15.7805 26.7394 15.8119 26.7453 15.8434 26.7514C15.893 26.7607 15.9427 26.7702 15.9928 26.7795C16.0258 26.7856 16.0589 26.7917 16.0921 26.7977C16.1414 26.8067 16.1908 26.8156 16.2407 26.8246C16.2753 26.8308 16.3103 26.8369 16.3452 26.8431C16.395 26.8518 16.4448 26.8605 16.495 26.8692C16.5297 26.8752 16.5644 26.8811 16.5992 26.887C16.6514 26.8958 16.7038 26.9047 16.7565 26.9135C16.7904 26.9191 16.8244 26.9248 16.8584 26.9304C16.9118 26.9392 16.9655 26.9479 17.0194 26.9566C17.0537 26.9621 17.088 26.9678 17.1225 26.9732C17.1784 26.9822 17.2348 26.9911 17.2913 26.9998C17.3237 27.0048 17.356 27.0099 17.3885 27.0149C17.4489 27.0243 17.5096 27.0334 17.5706 27.0426C17.5995 27.047 17.6284 27.0515 17.6574 27.0557C17.7239 27.0656 17.7907 27.0756 17.8575 27.0853C17.8819 27.0889 17.9062 27.0926 17.9308 27.096C18.0081 27.1073 18.0858 27.1184 18.1637 27.1295C18.1779 27.1315 18.1921 27.1337 18.2062 27.1357C18.3946 27.1623 18.5844 27.1884 18.7753 27.2139C18.7775 27.2142 18.7798 27.2146 18.7822 27.2148C18.8741 27.2271 18.9663 27.2393 19.0586 27.2514C19.0743 27.2534 19.0902 27.2554 19.106 27.2575C19.1848 27.2677 19.2638 27.2779 19.3427 27.2879C19.3651 27.2908 19.3877 27.2936 19.4102 27.2964C19.4817 27.3054 19.5532 27.3145 19.6247 27.3233C19.6534 27.3269 19.6821 27.3304 19.7108 27.3339C19.7769 27.342 19.843 27.3501 19.9091 27.3581C19.9385 27.3617 19.9678 27.3652 19.997 27.3687C20.0641 27.3767 20.1311 27.3848 20.1982 27.3927C20.2262 27.396 20.2543 27.3992 20.2824 27.4026C20.3502 27.4106 20.418 27.4185 20.4858 27.4263C20.5119 27.4294 20.5379 27.4323 20.5641 27.4354C20.6336 27.4434 20.7028 27.4513 20.772 27.4591C20.7983 27.462 20.8245 27.465 20.8507 27.4679C20.9201 27.4757 20.9893 27.4835 21.0586 27.4911C21.0834 27.4939 21.1083 27.4966 21.1331 27.4994C21.2046 27.5073 21.276 27.5151 21.3471 27.5228C21.3687 27.5252 21.3904 27.5275 21.4121 27.5299C21.4916 27.5385 21.5707 27.5469 21.6496 27.5554C21.6616 27.5567 21.6738 27.5579 21.6858 27.5593C22.4411 27.6392 23.1697 27.7098 23.839 27.7708C23.8396 27.7708 23.8402 27.771 23.8409 27.771C24.9115 27.8686 25.8296 27.9417 26.4573 27.989C26.4487 28.1335 26.4397 28.2777 26.4302 28.4218C26.4187 28.597 26.4076 28.7722 26.3947 28.947C26.3796 29.1506 26.3624 29.3534 26.3453 29.5564C26.3312 29.7259 26.3176 29.8955 26.3021 30.0644C26.2829 30.2728 26.2613 30.4802 26.2401 30.6879C26.2234 30.8506 26.2077 31.0136 26.1898 31.1759C26.1661 31.3913 26.1395 31.606 26.1135 31.8207C26.095 31.9739 26.0775 32.1276 26.0579 32.2804C26.0285 32.5082 25.9963 32.735 25.9644 32.9619C25.9449 33.1006 25.9268 33.24 25.9063 33.3785C25.8691 33.6304 25.8287 33.8811 25.7884 34.1318C25.7703 34.2444 25.7537 34.3574 25.7351 34.4698C25.6793 34.8044 25.6203 35.1377 25.559 35.4702C25.5539 35.498 25.5494 35.5258 25.5443 35.5534C25.4767 35.9168 25.4059 36.2789 25.3317 36.6397C25.3192 36.7005 25.3053 36.7608 25.2926 36.8216C25.2307 37.1179 25.1676 37.4139 25.1012 37.7083C25.0754 37.8224 25.0476 37.9356 25.0211 38.0494C24.9655 38.2894 24.91 38.5294 24.8515 38.7681C24.8185 38.9021 24.7834 39.035 24.7497 39.1685C24.6946 39.386 24.6399 39.6036 24.5824 39.8199C24.5444 39.9627 24.5042 40.1045 24.4653 40.2468C24.4089 40.4525 24.3527 40.6585 24.294 40.8631C24.2515 41.0115 24.2069 41.1589 24.1632 41.3068C24.1049 41.5036 24.047 41.7006 23.9867 41.8965C23.9399 42.0486 23.891 42.2 23.8429 42.3514C23.7825 42.5417 23.7222 42.7321 23.6599 42.9215C23.609 43.0756 23.5565 43.229 23.5045 43.3824C23.4416 43.5675 23.3788 43.7526 23.3141 43.9367C23.2594 44.0922 23.2031 44.247 23.1472 44.4018C23.1032 44.5236 23.0585 44.6452 23.0137 44.7666C21.6921 44.7778 20.4862 44.786 19.3837 44.7917C13.4105 44.822 10.5078 44.777 9.10799 44.7214C9.10532 44.7213 9.10279 44.7212 9.10012 44.7212C9.07038 44.72 9.04156 44.7188 9.01315 44.7175C9.00074 44.717 8.98834 44.7165 8.9762 44.7159C8.96046 44.7153 8.94525 44.7146 8.92991 44.7139C8.90844 44.713 8.88683 44.7121 8.86615 44.7111C8.86468 44.7111 8.86322 44.711 8.86175 44.7109C8.47597 44.6928 8.23093 44.6742 8.07673 44.6569C8.0766 44.6557 8.07633 44.6545 8.07619 44.6533C8.07393 44.6367 8.07166 44.6189 8.06953 44.6002C8.06886 44.5947 8.06819 44.5893 8.06752 44.5835C8.06539 44.5646 8.06339 44.5445 8.06139 44.5234C8.06085 44.5172 8.06019 44.5108 8.05965 44.5044C8.05765 44.4821 8.05565 44.459 8.05378 44.4343C8.05338 44.4286 8.05285 44.4224 8.05245 44.4164C8.05072 44.3917 8.04885 44.3662 8.04725 44.3391C8.04698 44.3332 8.04658 44.3272 8.04618 44.3212C8.04458 44.2941 8.04311 44.2657 8.04165 44.2363C8.04125 44.2286 8.04085 44.2211 8.04045 44.2132C8.03898 44.1816 8.03764 44.1484 8.03631 44.114C8.03604 44.1049 8.03564 44.0959 8.03538 44.0867C8.03417 44.0513 8.03298 44.0146 8.03204 43.9763C8.03177 43.9671 8.03164 43.9576 8.03137 43.9482C8.03044 43.9079 8.02951 43.8665 8.02871 43.8229C8.02857 43.8155 8.02844 43.8079 8.02844 43.8004C8.02777 43.7574 8.02724 43.7128 8.02684 43.6665C8.02684 43.6604 8.02671 43.6548 8.02671 43.6488C8.02631 43.5995 8.02604 43.5478 8.02604 43.4946C8.02604 43.4843 8.02604 43.4742 8.02604 43.4637C8.02604 43.4119 8.02617 43.358 8.02644 43.3026C8.02644 43.2894 8.02657 43.2758 8.02671 43.2623C8.02697 43.2054 8.0275 43.1467 8.02817 43.0858C8.02831 43.075 8.02844 43.0637 8.02857 43.0527C8.02937 42.988 8.03017 42.9216 8.03137 42.8524C8.03151 42.8461 8.03164 42.8395 8.03177 42.8332C8.03298 42.7651 8.03431 42.6946 8.03591 42.6221C8.03604 42.6134 8.03618 42.6049 8.03644 42.5962C8.03804 42.5222 8.03991 42.4454 8.04205 42.3667C8.04245 42.3529 8.04271 42.3391 8.04311 42.325C8.04525 42.2462 8.04751 42.165 8.05005 42.0814C8.05045 42.0677 8.05085 42.0537 8.05138 42.0398C8.05405 41.9537 8.05699 41.8654 8.06005 41.7741C8.06046 41.7635 8.06085 41.7527 8.06112 41.7421C8.06779 41.5486 8.07566 41.3433 8.0846 41.126C8.085 41.1151 8.0854 41.1047 8.08593 41.0937C8.09034 40.988 8.095 40.879 8.09994 40.7676C8.10061 40.7528 8.10127 40.7379 8.10194 40.7229C8.10701 40.6117 8.11221 40.4978 8.11768 40.3807C8.11848 40.3652 8.11915 40.3495 8.11995 40.3339C8.12568 40.2131 8.13169 40.0896 8.13809 39.9624C8.13836 39.9557 8.13876 39.9489 8.13916 39.9422C8.15249 39.6778 8.16717 39.3993 8.18331 39.1065C8.18424 39.0906 8.18504 39.0749 8.18598 39.0589C8.19372 38.9203 8.20172 38.778 8.20999 38.6329C8.21119 38.612 8.21239 38.5911 8.21359 38.5701C8.22213 38.4233 8.23093 38.2736 8.24 38.1201C8.24107 38.1035 8.242 38.0865 8.24307 38.0698C8.25267 37.9092 8.26268 37.7457 8.27308 37.5776C8.27322 37.5743 8.27348 37.5707 8.27375 37.5673C8.28442 37.3955 8.29549 37.2196 8.30697 37.0396C8.3075 37.0315 8.3079 37.0238 8.30843 37.0157C8.31937 36.8439 8.33084 36.6677 8.34258 36.4884C8.34418 36.4631 8.34592 36.4379 8.34752 36.4125C8.35912 36.2361 8.37113 36.0561 8.38353 35.8724C8.38513 35.8476 8.38687 35.8227 8.3886 35.7978C8.40127 35.6096 8.41435 35.4183 8.42795 35.2224C8.42929 35.2041 8.43049 35.1855 8.43182 35.1672C8.44596 34.9626 8.4605 34.7543 8.47557 34.5411C8.53827 33.6536 8.56295 32.8265 8.56455 31.9782C8.56642 30.8874 8.53 29.7619 8.48678 28.4281C8.45356 27.4007 8.41728 26.2789 8.3906 24.9589C8.37846 24.3588 8.36833 23.7178 8.36139 23.0261C8.35992 22.8803 8.35699 22.7338 8.35299 22.587C8.35245 22.5665 8.35205 22.5462 8.35138 22.5257C8.34738 22.3853 8.34205 22.2447 8.33591 22.1039C8.33484 22.0792 8.33378 22.0546 8.33258 22.0299C8.32604 21.8887 8.31857 21.7471 8.31003 21.6054C8.30883 21.586 8.3075 21.5666 8.3063 21.5472C8.28776 21.2488 8.26495 20.9501 8.23827 20.6516C8.2368 20.6341 8.2352 20.6166 8.23373 20.5992C8.22066 20.4554 8.20665 20.3118 8.19198 20.1684C8.18971 20.1463 8.18745 20.1242 8.18504 20.1021C8.1701 19.9588 8.15436 19.8157 8.13782 19.6729C8.13582 19.656 8.13382 19.639 8.13182 19.6222C8.09687 19.323 8.05859 19.0254 8.01763 18.7303C8.01563 18.7157 8.01363 18.701 8.01163 18.6862C7.99176 18.5435 7.97108 18.4015 7.94987 18.2601C7.94707 18.241 7.94413 18.222 7.94133 18.2029C7.91999 18.0615 7.89825 17.9206 7.87584 17.7808C7.8737 17.7674 7.87157 17.7541 7.8693 17.7407C7.82235 17.4489 7.77326 17.1608 7.72257 16.8773C7.72057 16.8659 7.71857 16.8544 7.71643 16.843C7.69176 16.7059 7.66681 16.57 7.64147 16.4353C7.6384 16.4188 7.63533 16.4025 7.63213 16.386C7.60678 16.2514 7.58104 16.118 7.55516 15.9861C7.55316 15.9759 7.55116 15.9659 7.54916 15.9557C7.49513 15.6816 7.44031 15.4135 7.38482 15.1521C7.38282 15.1425 7.38068 15.1327 7.37868 15.1229C7.35187 14.9968 7.32492 14.8724 7.29798 14.7496C7.29491 14.7358 7.29198 14.722 7.28891 14.7083C7.26183 14.5855 7.23475 14.4642 7.2078 14.345C7.20607 14.3374 7.20434 14.3297 7.2026 14.3221C7.14658 14.0756 7.09082 13.8372 7.03586 13.6077C7.03386 13.5996 7.03199 13.5916 7.03012 13.5836C7.00358 13.4727 6.97717 13.3642 6.95089 13.2578C6.94822 13.2468 6.94555 13.2359 6.94275 13.2251C6.91674 13.1193 6.89086 13.0156 6.86538 12.9145C6.86352 12.907 6.86165 12.8998 6.85978 12.8923C6.80722 12.6842 6.756 12.4863 6.70678 12.2993C6.70518 12.293 6.70344 12.2867 6.70184 12.2804C6.6781 12.1902 6.65476 12.1027 6.63195 12.0178C6.62954 12.0087 6.62714 11.9999 6.62474 11.9909C6.6022 11.907 6.58005 11.8257 6.55858 11.7473C6.55684 11.741 6.55524 11.735 6.55351 11.7287C6.50936 11.5682 6.46787 11.4196 6.42945 11.2843C6.42799 11.279 6.42652 11.2737 6.42505 11.2685C6.40678 11.2039 6.38917 11.1428 6.37236 11.0846C6.37009 11.0768 6.36796 11.0691 6.36569 11.0614C6.34928 11.0046 6.33355 10.9505 6.31874 10.9001C6.31714 10.8946 6.31567 10.8895 6.31407 10.884C6.29913 10.833 6.28472 10.7845 6.27165 10.7404C6.27165 10.7402 6.27152 10.7399 6.27152 10.7398C6.84978 10.3424 8.13889 9.43799 9.77483 8.15054ZM2.26878 21.2519C2.43112 16.0029 4.38974 12.8675 5.40193 11.5878C5.41887 11.6481 5.43647 11.7113 5.45475 11.7768C5.45635 11.7824 5.45782 11.7879 5.45942 11.7935C5.49543 11.9236 5.53372 12.0639 5.57387 12.2132C5.57654 12.2231 5.5792 12.2328 5.58174 12.2427C5.60121 12.3151 5.62096 12.3896 5.64123 12.4662C5.6443 12.4778 5.6475 12.4899 5.65057 12.5015C5.66938 12.5728 5.68845 12.6456 5.7078 12.7204C5.7102 12.7297 5.7126 12.7387 5.715 12.7481C5.73554 12.8276 5.75662 12.9094 5.77769 12.9926C5.78223 13.0107 5.7869 13.0289 5.79157 13.0472C5.81198 13.1279 5.83265 13.2098 5.85346 13.2938C5.8548 13.2989 5.856 13.3038 5.85733 13.309C5.87867 13.3949 5.90028 13.4829 5.92203 13.5719C5.92776 13.5956 5.93363 13.6195 5.93937 13.6433C5.96111 13.733 5.98299 13.8237 6.00513 13.9163C6.00753 13.9264 6.00993 13.9367 6.01233 13.9467C6.03234 14.0312 6.05262 14.1173 6.07289 14.2041C6.0789 14.2301 6.08503 14.256 6.09104 14.2822C6.11265 14.3758 6.13439 14.4705 6.15627 14.5666C6.16133 14.5887 6.16627 14.6114 6.17134 14.6336C6.18975 14.7151 6.20815 14.7976 6.22656 14.8809C6.23256 14.908 6.23857 14.9348 6.24457 14.9621C6.26591 15.0594 6.28739 15.1581 6.3086 15.2576C6.315 15.2872 6.32127 15.317 6.32754 15.3468C6.34595 15.4333 6.36436 15.5206 6.38263 15.6088C6.3873 15.6311 6.39197 15.6532 6.39651 15.6756C6.41772 15.7786 6.43892 15.8829 6.46 15.9877C6.46654 16.0201 6.47294 16.0525 6.47948 16.0851C6.49922 16.1846 6.51896 16.2847 6.53844 16.3857C6.54244 16.4062 6.54631 16.4266 6.55031 16.4472C6.56952 16.5471 6.58846 16.6478 6.60727 16.749C6.61367 16.7833 6.61994 16.8177 6.62634 16.8521C6.64649 16.9616 6.66636 17.0714 6.68597 17.1821C6.6901 17.2055 6.69424 17.2292 6.69837 17.2528C6.71518 17.3487 6.73186 17.445 6.74827 17.5418C6.75373 17.5741 6.75934 17.6063 6.76467 17.6388C6.78348 17.7511 6.80202 17.864 6.8203 17.9774C6.8251 18.0077 6.8299 18.0381 6.8347 18.0685C6.85004 18.1648 6.86498 18.2615 6.87966 18.3584C6.88406 18.3873 6.88846 18.4161 6.89286 18.4451C6.91007 18.5601 6.92688 18.6757 6.94328 18.7914C6.94795 18.8246 6.95262 18.8578 6.95729 18.891C6.9721 18.997 6.98664 19.1034 7.00065 19.2101C7.00291 19.2278 7.00545 19.2453 7.00771 19.2629C7.02319 19.3814 7.038 19.5002 7.0524 19.6191C7.05654 19.6534 7.06067 19.6876 7.06481 19.7219C7.07908 19.8415 7.09282 19.9612 7.10602 20.0812C7.10789 20.0984 7.10963 20.1156 7.11149 20.1328C7.12323 20.2416 7.13444 20.3505 7.14511 20.4595C7.14818 20.4913 7.15138 20.523 7.15445 20.5549C7.16592 20.6749 7.17699 20.795 7.18726 20.9151C7.18939 20.9405 7.1914 20.9659 7.19353 20.9913C7.20234 21.0968 7.21047 21.2023 7.21821 21.3077C7.22021 21.3345 7.22221 21.3613 7.22408 21.3881C7.23261 21.5087 7.24035 21.6294 7.24742 21.7498C7.24902 21.7784 7.25062 21.807 7.25222 21.8356C7.25836 21.9448 7.26383 22.0536 7.26863 22.1624C7.26943 22.1807 7.27037 22.1991 7.27117 22.2174C7.27624 22.3386 7.28037 22.4594 7.2837 22.5799C7.28451 22.6094 7.28531 22.6387 7.28597 22.668C7.28904 22.7912 7.29157 22.9142 7.29277 23.0364C7.31532 25.2622 7.37028 26.9625 7.41883 28.4626C7.49433 30.8017 7.54916 32.4917 7.40963 34.4651C7.39922 34.6126 7.38909 34.7577 7.37908 34.9012C7.37628 34.9417 7.37348 34.9814 7.37068 35.0216C7.36361 35.1239 7.35654 35.2254 7.34973 35.3257C7.3464 35.3749 7.34306 35.4236 7.33973 35.4722C7.33359 35.5618 7.32759 35.6503 7.32172 35.7382C7.31852 35.7865 7.31519 35.8354 7.31199 35.8834C7.30331 36.0131 7.29464 36.1414 7.28637 36.2674C7.28491 36.2894 7.28357 36.3105 7.2821 36.3324C7.27504 36.4386 7.26823 36.5437 7.26143 36.6475C7.25849 36.6926 7.25569 36.7371 7.25276 36.7817C7.24742 36.8632 7.24222 36.9441 7.23715 37.024C7.23422 37.0712 7.23115 37.118 7.22821 37.1647C7.22328 37.2414 7.21861 37.317 7.21394 37.3922C7.21114 37.436 7.20847 37.4803 7.20567 37.5235C7.19873 37.635 7.19193 37.745 7.18539 37.8532C7.18326 37.8875 7.18126 37.9209 7.17926 37.9549C7.17446 38.0338 7.16979 38.1122 7.16525 38.1894C7.16285 38.2298 7.16045 38.2697 7.15818 38.3098C7.15391 38.383 7.14965 38.4556 7.14551 38.5274C7.14338 38.5649 7.14124 38.6022 7.13911 38.6392C7.13497 38.7114 7.13084 38.7826 7.12697 38.8533C7.1251 38.8871 7.1231 38.9213 7.12123 38.9547C7.11563 39.0539 7.11029 39.1517 7.10509 39.2478C7.10376 39.2709 7.10269 39.2932 7.10136 39.3161C7.09722 39.3923 7.09322 39.4677 7.08935 39.542C7.08762 39.5742 7.08602 39.6058 7.08441 39.6375C7.08095 39.7031 7.07761 39.7681 7.07441 39.8322C7.07294 39.862 7.07134 39.8918 7.06988 39.9213C7.06614 39.9952 7.06254 40.068 7.05907 40.14C7.05827 40.1566 7.05747 40.1736 7.05654 40.19C7.05213 40.2814 7.04786 40.3711 7.04386 40.4591C7.04346 40.4679 7.04306 40.4765 7.04266 40.4855C7.03906 40.5621 7.03573 40.6374 7.03253 40.7116C7.03159 40.7321 7.03079 40.7523 7.02986 40.7726C7.02692 40.8398 7.02412 40.9061 7.02132 40.9713C7.02065 40.9867 7.01999 41.0022 7.01945 41.0175C7.00918 41.2644 7.00051 41.4968 6.99304 41.7157C6.99277 41.7236 6.99251 41.7315 6.99224 41.7394C6.98984 41.8092 6.98771 41.8778 6.98557 41.9449C6.98557 41.9467 6.98544 41.9486 6.98544 41.9503C6.92141 44.0402 6.99024 44.8101 7.08868 45.1508C7.01665 45.4293 6.88979 45.9694 6.82763 46.5297L2.17501 46.4867C2.19155 44.238 2.20329 40.6875 2.13606 38.6563C2.00853 34.8167 2.06056 27.9851 2.26878 21.2519Z" fill="#363230" stroke="#363230" stroke-width="0.2"/>
</g>
</svg>
