<svg width="54" height="53" viewBox="0 0 54 53" fill="currentColor" xmlns="http://www.w3.org/2000/svg">
<g id="Group 251">
<path id="Vector" d="M46.5368 45.3998C46.5368 45.2333 46.4834 45.0669 46.4299 44.9005C46.1093 44.0129 44.6665 41.7383 38.8953 41.7383C32.9103 41.7383 31.4675 40.5733 29.9178 39.2974L29.8644 39.2419C29.0094 38.5762 20.9938 32.5293 18.8563 32.0301C18.5891 31.9746 18.3219 32.0855 18.1082 32.252C17.9479 32.4739 17.7341 32.7512 17.5204 33.0841C16.4516 34.6374 14.5813 37.2448 10.5201 37.2448C5.65731 37.2448 3.46638 34.8593 3.41294 34.8593C3.25263 34.6374 2.98545 34.5819 2.71826 34.5819C2.45107 34.6374 2.23732 34.8039 2.13045 35.0812C1.75639 35.9688 -1.2361 43.7355 0.580769 46.9531L0.580769 52.2233C0.580769 52.4452 0.687644 52.6671 0.794518 52.778C0.95483 52.9445 1.11514 53 1.32889 53H12.3904C12.8179 53 13.192 52.6116 13.192 52.1678V51.5576C17.3066 51.835 21.4213 52.2233 25.4825 52.6671C27.3528 52.889 29.2231 53 30.9866 53C38.3609 53 43.2237 51.2247 45.5215 50.1707C46.4834 49.7269 47.0177 48.6728 46.9109 47.6188C46.804 47.7852 46.5902 45.9545 46.5368 45.3998ZM3.19919 36.801C4.37481 37.6886 6.77949 38.9091 10.5201 38.9091C15.3829 38.9091 17.6807 35.636 18.7494 34.0827C18.8029 33.9717 18.8563 33.9162 18.9097 33.8053C19.3907 34.0272 20.0854 34.4155 20.8869 34.9148L19.1769 37.7996C19.0166 38.0215 19.1235 38.3543 19.3372 38.4653L19.8716 38.7981C20.0854 38.9645 20.406 38.8536 20.5129 38.6317L22.2229 35.7469C22.8641 36.1353 23.5054 36.5791 24.1466 37.0229L22.4366 39.8522C22.2763 40.0741 22.3832 40.4069 22.5969 40.5179L23.1313 40.8507C23.345 41.0172 23.6657 40.9062 23.7725 40.6843L25.4291 37.9105C26.0703 38.4098 26.7116 38.8536 27.2994 39.2974L25.6963 41.9602C25.536 42.1821 25.6428 42.515 25.8566 42.626L26.391 42.9588C26.6047 43.1252 26.9253 43.0143 27.0322 42.7924L28.5819 40.2405C28.6888 40.3514 28.7956 40.4069 28.9025 40.4624L28.956 40.5179C30.6659 41.8493 32.3759 43.2917 38.8953 43.2917C42.6359 43.2917 44.0787 44.2902 44.6665 44.9559C42.5825 45.9545 35.7959 48.7283 25.91 47.6188C13.6195 46.2319 3.94732 45.9545 1.80983 45.9545C1.00827 44.2348 2.07701 39.8522 3.19919 36.801ZM44.8268 48.8393C42.6893 49.8378 38.0403 51.5021 30.9331 51.5021C29.2231 51.5021 27.4063 51.3911 25.5894 51.1692C21.261 50.67 16.8257 50.2816 12.4438 50.0043H12.3904C12.1767 50.0043 12.0163 50.0597 11.856 50.2262C11.6957 50.3926 11.5888 50.6145 11.5888 50.8364V51.5021H2.13045L2.13045 47.6188C4.80231 47.6743 14.1004 47.9516 25.6963 49.2831C35.689 50.3926 42.5825 47.7852 45.094 46.5647L45.2543 47.8962C45.3078 48.34 45.1474 48.6728 44.8268 48.8393Z" fill="#363230"/>
<path id="Vector_2" d="M47.0855 35.2564C47.1674 35.1123 47.2029 34.941 47.2384 34.7697C47.3971 33.838 47.2658 31.1345 42.2678 28.1996C37.0846 25.1561 36.4079 23.4134 35.6931 21.5204L35.6741 21.4451C35.2609 20.4338 31.2919 11.1209 29.6862 9.60153C29.4821 9.41761 29.1962 9.37783 28.9292 9.41326C28.6813 9.52391 28.3598 9.65543 28.0111 9.83499C26.3219 10.6367 23.4204 11.9437 19.9032 9.8784C15.6919 7.40551 14.9673 4.22548 14.921 4.19831C14.8912 3.92461 14.6871 3.7407 14.4557 3.60482C14.1971 3.51699 13.9301 3.55243 13.7012 3.73829C12.9409 4.31677 6.53118 9.52109 6.52282 13.2316L3.93192 17.7957C3.82283 17.9879 3.8063 18.2344 3.84431 18.3848C3.90133 18.6105 4.01289 18.74 4.198 18.8487L13.7776 24.4739C14.1478 24.6913 14.6626 24.5452 14.8808 24.1608L15.1808 23.6324C18.6079 25.965 21.9804 28.3938 25.2793 30.8434C26.7899 31.9867 28.3551 33.0339 29.8823 33.9306C36.2687 37.6807 41.3527 38.6162 43.8608 38.8719C44.912 38.9767 45.893 38.3356 46.3186 37.3684C46.1442 37.4582 46.8591 35.7641 47.0855 35.2564ZM13.7813 5.77114C14.3631 7.13767 15.8456 9.41748 19.0851 11.3197C23.2964 13.7926 26.8954 12.1265 28.5846 11.3248C28.6854 11.2559 28.759 11.235 28.8598 11.1661C29.1672 11.6028 29.5779 12.2924 30.0266 13.1324L27.1275 14.7611C26.8796 14.8718 26.8085 15.2144 26.9391 15.4192L27.2383 15.9792C27.3416 16.232 27.6738 16.2989 27.8754 16.1611L30.7745 14.5324C31.1389 15.1948 31.4761 15.9053 31.8132 16.6157L28.9414 18.1964C28.6935 18.307 28.6224 18.6496 28.753 18.8544L29.0521 19.4144C29.1554 19.6672 29.4876 19.7342 29.6893 19.5964L32.4875 18.0366C32.7974 18.7951 33.1346 19.5055 33.4254 20.1888L30.728 21.6797C30.4801 21.7903 30.409 22.1329 30.5396 22.3377L30.8387 22.8977C30.942 23.1506 31.2742 23.2175 31.4759 23.0797L34.0725 21.6577C34.1105 21.8082 34.1758 21.9106 34.2411 22.013L34.2601 22.0882C35.0864 24.1108 35.8582 26.2295 41.5042 29.5448C44.7436 31.447 45.5022 33.0455 45.684 33.921C43.3882 33.726 36.1473 32.677 28.1313 26.6888C18.1692 19.2376 9.92924 14.0788 8.07812 12.9918C8.2294 11.0948 11.3095 7.84287 13.7813 5.77114ZM43.9138 37.3656C41.5717 37.1434 36.7274 36.2205 30.5724 32.6063C29.0915 31.7367 27.5726 30.7167 26.1082 29.6005C22.6052 26.967 18.955 24.3752 15.2965 21.9067L15.2503 21.8795C15.0652 21.7708 14.8991 21.7373 14.6784 21.8C14.4577 21.8626 14.2561 22.0004 14.147 22.1926L13.8197 22.7691L5.62853 17.9592L7.53761 14.5961C9.82424 16.0029 17.7403 20.9715 27.128 28.0214C35.2366 34.0639 42.4883 35.3114 45.2633 35.5316L44.7476 36.7662C44.5757 37.1777 44.2732 37.3845 43.9138 37.3656Z" fill="#363230"/>
</g>
</svg>
