<svg width="38" height="52" viewBox="0 0 38 52" fill="currentColor" xmlns="http://www.w3.org/2000/svg">
<g id="Frame 247">
<g id="Group 233">
<path id="Vector" d="M31.1609 48.0587H6.79294C3.64391 48.0587 1.08008 46.0639 1.08008 43.6092V19.1751C1.08008 16.7224 3.64129 14.7256 6.79294 14.7256H31.1609C34.3099 14.7256 36.8737 16.7204 36.8737 19.1751V43.6092C36.8737 46.0639 34.3125 48.0587 31.1609 48.0587ZM6.79294 15.4962C4.18712 15.4962 2.06943 17.1476 2.06943 19.1751V43.6093C2.06943 45.6388 4.18974 47.2882 6.79294 47.2882H31.1609C33.7667 47.2882 35.8844 45.6368 35.8844 43.6093L35.887 19.1751C35.887 17.1456 33.7667 15.4962 31.1635 15.4962H6.79294Z" fill="#363230" stroke="#363230" stroke-width="0.9"/>
<path id="Vector_2" d="M26.0244 16H24.1533C23.9459 16 23.7783 15.8379 23.7783 15.6372V10.3628C23.7783 10.1621 23.9459 10 24.1533 10C24.3608 10 24.5283 10.1621 24.5283 10.3628V15.2743H25.6473V10.3628C25.6473 10.1621 25.8149 10 26.0223 10C26.2298 10 26.3974 10.1621 26.3974 10.3628V15.6372C26.3993 15.8379 26.2318 16 26.0244 16Z" fill="#363230" stroke="#363230" stroke-width="0.4"/>
<path id="Vector_3" d="M13.8005 16H11.9309C11.7236 16 11.5562 15.8379 11.5562 15.6372V10.3628C11.5562 10.1621 11.7236 10 11.9309 10C12.1382 10 12.3056 10.1621 12.3056 10.3628V15.2743H13.4238L13.4258 10.3628C13.4258 10.1621 13.5932 10 13.8005 10C14.0078 10 14.1752 10.1621 14.1752 10.3628V15.6372C14.1752 15.8379 14.0078 16 13.8005 16Z" fill="#363230" stroke="#363230" stroke-width="0.4"/>
<path id="Vector_4" d="M9.03417 43.1567C8.15762 43.1567 7.44336 42.4571 7.44336 41.5966V21.1875C7.44336 20.327 8.15767 19.6274 9.03417 19.6274C9.46354 19.6274 9.86321 19.7922 10.16 20.0887C10.4588 20.3736 10.625 20.7651 10.625 21.1856V41.5947C10.627 42.4571 9.9127 43.1567 9.03417 43.1567ZM9.03417 20.3582C8.56721 20.3582 8.1873 20.7303 8.1873 21.1877V41.5968C8.1873 42.0542 8.5672 42.4263 9.03417 42.4263C9.50114 42.4263 9.88104 42.0542 9.88104 41.5968V21.1877C9.88104 20.9648 9.79397 20.7575 9.63371 20.6063C9.47146 20.4454 9.26171 20.3582 9.03417 20.3582Z" fill="#363230"/>
<path id="Vector_5" d="M18.978 43.1567C17.8806 43.1567 16.9883 42.4571 16.9883 41.5966V21.1875C16.9883 20.327 17.8806 19.6274 18.978 19.6274C19.5144 19.6274 20.0137 19.7922 20.3845 20.0906C20.7552 20.3755 20.9653 20.767 20.9653 21.1875V41.5966C20.9678 42.4571 20.0755 43.1567 18.978 43.1567ZM18.978 20.3582C18.3947 20.3582 17.9201 20.7303 17.9201 21.1877V41.5968C17.9201 42.0542 18.3947 42.4263 18.978 42.4263C19.5614 42.4263 20.036 42.0542 20.036 41.5968V21.1877C20.036 20.9648 19.9272 20.7594 19.727 20.6063C19.5268 20.4435 19.2623 20.3582 18.978 20.3582Z" fill="#363230"/>
<path id="Vector_6" d="M28.9194 43.1567C28.0429 43.1567 27.3286 42.4571 27.3286 41.5966V21.1875C27.3286 20.327 28.0429 19.6274 28.9194 19.6274C29.3488 19.6274 29.7485 19.7922 30.0453 20.0887C30.3441 20.3736 30.5103 20.7651 30.5103 21.1856V41.5947C30.5122 42.4571 29.7979 43.1567 28.9194 43.1567ZM28.9194 20.3582C28.4525 20.3582 28.0726 20.7303 28.0726 21.1877V41.5968C28.0726 42.0542 28.4525 42.4263 28.9194 42.4263C29.3864 42.4263 29.7663 42.0542 29.7663 41.5968V21.1877C29.7663 20.9648 29.6792 20.7575 29.519 20.6063C29.3567 20.4454 29.147 20.3582 28.9194 20.3582Z" fill="#363230"/>
<path id="Vector_7" d="M25.5658 10.8039H23.7864C23.2534 10.8039 22.8209 10.3222 22.8209 9.72861L22.8228 6.69512C22.8228 5.45932 21.9198 4.45173 20.8102 4.45173H17.1434C16.0337 4.45173 15.1289 5.45727 15.1289 6.69512V9.7265C15.1289 10.3201 14.6964 10.8017 14.1653 10.8017H12.3859C11.8529 10.8017 11.4204 10.3201 11.4204 9.7265V6.01914C11.4204 3.25183 13.4425 1 15.9275 1H22.0262C24.5112 1 26.5333 3.25189 26.5333 6.01914V9.72861C26.5314 10.3201 26.0969 10.8039 25.5658 10.8039ZM17.1414 3.65737H20.8081C22.3124 3.65737 23.5359 5.01988 23.5359 6.69507V9.72645C23.5359 9.88066 23.6478 10.0053 23.7863 10.0053H25.5656C25.7041 10.0053 25.816 9.88065 25.816 9.72645V6.01909C25.816 3.69117 24.1145 1.79631 22.0241 1.79631H15.9253C13.833 1.79631 12.1334 3.69117 12.1334 6.01909V9.72855C12.1334 9.88276 12.2453 10.0074 12.3837 10.0074H14.1631C14.3015 10.0074 14.4135 9.88276 14.4135 9.72855V6.69507C14.4135 5.01988 15.6371 3.65737 17.1414 3.65737Z" fill="#363230" stroke="#363230" stroke-width="0.7"/>
<path id="Vector_8" d="M11.0303 51H8.47902C7.94836 51 7.51562 50.5753 7.51562 50.0545V48.2838C7.51562 48.0755 7.68707 47.9072 7.89934 47.9072H11.61C11.8222 47.9072 11.9937 48.0755 11.9937 48.2838V50.0545C11.9937 50.5753 11.563 51 11.0303 51ZM8.28308 48.6604V50.0525C8.28308 50.1567 8.37289 50.2448 8.47902 50.2448H11.0303C11.1364 50.2448 11.2262 50.1567 11.2262 50.0525V48.6604H8.28308Z" fill="#363230" stroke="#363230" stroke-width="0.4"/>
<path id="Vector_9" d="M29.4742 51H26.9229C26.3902 51 25.9595 50.5753 25.9595 50.0545V48.2838C25.9595 48.0755 26.1309 47.9072 26.3432 47.9072H30.0538C30.2661 47.9072 30.4375 48.0755 30.4375 48.2838V50.0545C30.4396 50.5753 30.0069 51 29.4742 51ZM26.7269 48.6604V50.0525C26.7269 50.1567 26.8167 50.2448 26.9229 50.2448H29.4742C29.5803 50.2448 29.6701 50.1567 29.6701 50.0525V48.6604H26.7269Z" fill="#363230" stroke="#363230" stroke-width="0.4"/>
</g>
</g>
</svg>
