<svg width="52" height="52" viewBox="0 0 52 52" fill="currentColor" xmlns="http://www.w3.org/2000/svg">
<g id="Group">
<path id="Vector" d="M50.0187 31.6454H49.2344V22.7274C49.2344 21.4044 48.156 20.2775 46.7835 20.2775H43.9894V14.8386C43.9894 13.5156 42.9109 12.3887 41.5385 12.3887H35.1661C34.823 9.39975 33.4504 6.55778 31.1955 4.45099C28.5975 2.00107 25.2152 0.825089 21.637 1.02102C15.5096 1.46201 10.4609 6.31292 9.82342 12.3888H5.41171C2.96077 12.3888 1 14.3977 1 16.7987V46.5901C1 49.04 3.00978 51 5.41171 51H46.7844C48.1079 51 49.2353 49.922 49.2353 48.5501V39.6321H50.0196C50.5588 39.6321 51 39.1911 51 38.6521V32.6252C51 32.0862 50.5588 31.6452 50.0196 31.6452L50.0187 31.6454ZM35.2147 13.3685H41.5381C42.3225 13.3685 43.0088 14.0055 43.0088 14.8385V20.2774H33.4502C34.6267 18.3175 35.2639 16.0635 35.2639 13.7603C35.2639 13.6133 35.2147 13.5155 35.2147 13.3685ZM10.7543 12.8785V12.7805C11.1955 6.99863 15.9013 2.34351 21.7346 2.00044C25.019 1.80444 28.1559 2.93144 30.5578 5.13638C32.9597 7.39037 34.2833 10.4283 34.2833 13.7113C34.2833 16.0632 33.597 18.2682 32.3225 20.2284H29.0873C30.803 18.5134 31.7833 16.1615 31.7833 13.7113C31.7833 11.0653 30.6559 8.56641 28.6951 6.80219C26.7343 5.03797 24.0873 4.20526 21.4895 4.49922C17.2248 4.98921 13.7932 8.41914 13.3521 12.7311C13.058 15.524 14.0384 18.219 15.9992 20.1789H12.764C11.2443 18.0719 10.5581 15.524 10.7542 12.8778L10.7543 12.8785ZM27.568 20.2775H17.4209C15.166 18.5135 13.9895 15.7696 14.2837 12.9275C14.6759 9.10551 17.7151 6.01836 21.5382 5.57745C23.9402 5.33246 26.1951 6.01844 28.0085 7.63538C29.7732 9.20335 30.7536 11.4573 30.7536 13.8093C30.7536 16.3083 29.5771 18.7092 27.5673 20.2769L27.568 20.2775ZM5.41159 13.3684H9.77429C9.67625 15.8183 10.3135 18.1703 11.539 20.2775H5.41159C3.49981 20.2775 1.9802 18.7095 1.9802 16.8475C1.9802 14.9855 3.54882 13.3684 5.41159 13.3684ZM7.12728 50.02H5.41159C3.49981 50.02 1.9802 48.452 1.9802 46.59V19.5915C2.81351 20.6204 4.03898 21.2574 5.41159 21.2574H7.12728V50.02ZM48.2546 48.55C48.2546 49.334 47.6174 50.02 46.784 50.02H8.10748V21.2578H46.784C47.5683 21.2578 48.2546 21.8947 48.2546 22.7278V31.6458H39.1372C36.9313 31.6458 35.1666 33.4587 35.1666 35.6147C35.1666 37.8196 36.9803 39.5836 39.1372 39.5836H48.2546V48.55ZM39.1372 38.6523C37.4705 38.6523 36.147 37.2804 36.147 35.6634C36.147 34.0465 37.5195 32.6745 39.1372 32.6745H50.0196V38.7014H39.1372V38.6523Z" fill="#363230" stroke="#363230" stroke-width="0.5"/>
<path id="Vector_2" d="M40.901 33.9971C39.9696 33.9971 39.2344 34.7321 39.2344 35.663C39.2344 36.5939 39.9697 37.3289 40.901 37.3289C41.8323 37.3289 42.5676 36.5939 42.5676 35.663C42.5676 34.7321 41.7833 33.9971 40.901 33.9971ZM40.901 36.3C40.5579 36.3 40.2147 36.006 40.2147 35.614C40.2147 35.271 40.5088 34.928 40.901 34.928C41.2441 34.928 41.5873 35.222 41.5873 35.614C41.5383 36.006 41.2442 36.3 40.901 36.3Z" fill="#363230"/>
</g>
</svg>
